<?xml version="1.0" standalone="no"?>
<!DOCTYPE svg PUBLIC "-//W3C//DTD SVG 20010904//EN"
 "http://www.w3.org/TR/2001/REC-SVG-20010904/DTD/svg10.dtd">
<svg version="1.0" xmlns="http://www.w3.org/2000/svg"
 width="1204.000000pt" height="970.000000pt" viewBox="0 0 1204.000000 970.000000"
 preserveAspectRatio="xMidYMid meet">
<metadata>
Created by potrace 1.16, written by Peter Selinger 2001-2019
</metadata>
<g transform="translate(0.000000,970.000000) scale(0.100000,-0.100000)"
fill="#000000" stroke="none">
<path d="M1010 9530 c0 -80 4 -130 10 -130 6 0 10 50 10 130 0 80 -4 130 -10
130 -6 0 -10 -50 -10 -130z"/>
<path d="M1690 9530 c0 -80 4 -130 10 -130 6 0 10 50 10 130 0 80 -4 130 -10
130 -6 0 -10 -50 -10 -130z"/>
<path d="M2294 9530 c0 -74 1 -105 3 -67 2 37 2 97 0 135 -2 37 -3 6 -3 -68z"/>
<path d="M921 9613 c0 -13 -8 -23 -16 -23 -8 0 -15 -4 -15 -10 0 -5 5 -10 10
-10 6 0 10 -26 10 -57 0 -85 7 -103 39 -102 25 0 25 0 4 9 -21 8 -23 16 -23
80 0 63 2 70 20 70 11 0 20 5 20 10 0 6 -9 10 -19 10 -12 0 -21 8 -24 23 l-4
22 -2 -22z"/>
<path d="M1508 9619 c-10 -5 -18 -17 -18 -26 0 -14 4 -13 20 5 34 37 100 22
100 -21 0 -24 -7 -32 -84 -106 -65 -62 -62 -71 29 -71 93 0 99 18 8 22 l-68 3
68 66 c37 36 67 72 67 80 0 8 -7 25 -16 37 -17 24 -74 30 -106 11z"/>
<path d="M1901 9618 c0 -9 -9 -22 -18 -27 -13 -8 -15 -13 -6 -19 7 -4 13 -38
15 -82 l3 -75 30 -2 c27 -2 28 -2 8 7 -21 8 -23 16 -23 80 0 56 3 70 15 70 8
0 15 5 15 10 0 6 -6 10 -14 10 -8 0 -17 10 -19 23 -3 13 -5 16 -6 5z"/>
<path d="M344 9498 c19 -51 39 -93 46 -93 7 0 28 41 46 90 38 102 36 95 26 95
-4 0 -21 -38 -37 -85 -16 -47 -32 -85 -35 -85 -3 0 -18 38 -34 85 -15 47 -31
85 -36 85 -5 0 6 -42 24 -92z"/>
<path d="M710 9495 c0 -111 17 -129 22 -22 4 85 0 117 -13 117 -5 0 -9 -43 -9
-95z"/>
<path d="M1409 9568 c-1 -13 -1 -58 -1 -102 1 -97 -7 -116 -53 -116 -18 0 -37
5 -40 10 -3 6 -11 10 -18 10 -7 0 -5 -6 5 -16 21 -21 86 -21 107 0 12 13 17
41 19 126 3 75 0 110 -7 110 -6 0 -12 -10 -12 -22z"/>
<path d="M1991 9498 c-1 -59 3 -98 9 -98 12 0 12 147 0 175 -6 13 -9 -14 -9
-77z"/>
<path d="M146 9558 c-20 -29 -20 -97 0 -126 12 -17 25 -22 58 -22 27 0 48 6
56 15 8 9 9 15 2 15 -6 0 -14 -4 -17 -10 -9 -14 -68 -13 -83 2 -7 7 -12 22
-12 35 0 22 4 23 66 23 l67 0 -7 33 c-8 41 -30 57 -77 57 -28 0 -42 -6 -53
-22z m104 -7 c18 -35 12 -41 -45 -41 -46 0 -55 3 -55 18 0 27 20 42 57 42 22
0 36 -6 43 -19z"/>
<path d="M527 9562 c-25 -27 -23 -114 2 -136 25 -23 88 -23 109 -2 10 10 12
16 5 16 -7 0 -15 -4 -18 -10 -9 -14 -71 -12 -83 3 -5 6 -13 22 -16 35 -7 21
-5 22 63 22 39 0 71 4 71 9 0 19 -21 66 -33 73 -23 15 -83 8 -100 -10z m97 -8
c32 -32 20 -44 -44 -44 -33 0 -60 3 -60 8 0 4 7 18 16 30 18 26 65 30 88 6z"/>
<path d="M757 9573 c-3 -5 11 -8 31 -8 l37 0 3 -82 c2 -46 7 -83 12 -83 15 0
12 154 -2 168 -13 13 -74 17 -81 5z"/>
<path d="M1113 9572 c-35 -22 -39 -114 -7 -147 23 -23 87 -19 110 6 26 29 26
99 0 128 -19 21 -78 29 -103 13z m91 -24 c35 -49 9 -128 -42 -128 -47 0 -57
14 -57 75 0 61 10 75 57 75 17 0 33 -9 42 -22z"/>
<path d="M1299 9563 c-8 -9 -14 -39 -14 -68 0 -29 6 -59 14 -68 14 -17 76 -24
85 -9 3 5 -9 6 -26 4 -40 -6 -58 17 -58 73 0 56 18 79 58 73 17 -2 29 -1 26 4
-9 15 -71 8 -85 -9z"/>
<path d="M1760 9573 c44 -8 50 -21 50 -99 0 -43 4 -74 10 -74 13 0 13 121 0
154 -8 22 -15 26 -47 25 -28 -1 -31 -3 -13 -6z"/>
<path d="M2055 9573 c39 -10 45 -23 45 -99 0 -43 4 -74 10 -74 13 0 13 136 0
161 -8 13 -21 19 -43 18 -21 -1 -25 -3 -12 -6z"/>
<path d="M2167 9573 c34 -7 42 -24 46 -103 3 -67 3 -65 3 15 l-1 90 -35 2
c-19 0 -25 -1 -13 -4z"/>
<path d="M126 9174 c-20 -20 -20 -48 0 -68 23 -23 51 -20 70 9 15 23 15 27 0
50 -19 29 -47 32 -70 9z m59 -34 c0 -38 -24 -52 -50 -30 -31 25 -9 73 30 68
16 -2 20 -11 20 -38z"/>
<path d="M304 9167 c-8 -22 -1 -70 11 -74 6 -2 10 14 9 37 -1 45 -10 62 -20
37z"/>
<path d="M221 9111 c1 -32 4 -48 7 -36 4 11 16 20 27 20 16 0 20 7 20 35 0 31
-3 35 -27 36 -27 1 -28 0 -27 -55z m49 19 c0 -19 -5 -30 -14 -30 -17 0 -28 24
-20 45 11 27 34 17 34 -15z"/>
<path d="M343 9130 c0 -25 2 -35 4 -22 2 12 2 32 0 45 -2 12 -4 2 -4 -23z"/>
<path d="M380 9155 c-26 -31 13 -82 44 -56 19 16 21 42 4 59 -16 16 -33 15
-48 -3z m44 -10 c7 -20 -3 -45 -19 -45 -7 0 -15 7 -19 15 -7 20 3 45 19 45 7
0 15 -7 19 -15z"/>
<path d="M463 9130 c0 -25 2 -35 4 -22 2 12 2 32 0 45 -2 12 -4 2 -4 -23z"/>
<path d="M487 9162 c6 -4 13 -23 16 -42 4 -33 4 -33 5 8 2 34 -1 42 -15 42
-12 0 -14 -3 -6 -8z"/>
<path d="M537 9163 c-13 -12 -7 -23 18 -35 28 -13 23 -32 -8 -24 -14 3 -17 2
-10 -5 14 -14 45 -8 50 8 3 7 -7 18 -21 24 -31 14 -35 34 -6 26 11 -3 20 -1
20 4 0 10 -33 12 -43 2z"/>
<path d="M590 8752 c0 -13 -7 -18 -22 -18 -20 1 -23 -4 -23 -34 0 -31 3 -35
28 -36 26 -1 27 1 27 52 0 30 -2 54 -5 54 -3 0 -5 -8 -5 -18z m-5 -52 c0 -13
-6 -25 -12 -27 -16 -6 -27 21 -19 43 9 23 31 11 31 -16z"/>
<path d="M126 8744 c-20 -20 -20 -48 0 -68 20 -20 48 -20 64 0 12 13 10 14
-13 3 -21 -9 -30 -9 -42 1 -32 27 -6 78 35 67 11 -3 18 -1 14 4 -8 14 -41 11
-58 -7z"/>
<path d="M424 8737 c-8 -22 -1 -70 11 -74 6 -2 10 14 9 37 -1 45 -10 62 -20
37z"/>
<path d="M738 8744 c-10 -9 8 -77 20 -80 7 -1 8 0 2 3 -14 7 -13 60 2 65 8 3
6 6 -4 10 -9 4 -18 5 -20 2z"/>
<path d="M222 8698 c1 -41 1 -41 5 -8 3 19 10 38 16 42 8 5 6 8 -5 8 -15 0
-18 -8 -16 -42z"/>
<path d="M271 8726 c-16 -19 -11 -46 11 -60 12 -7 21 -7 28 0 8 8 4 10 -11 10
-12 -1 -24 5 -26 12 -3 7 5 12 22 12 20 0 26 4 23 17 -4 23 -31 28 -47 9z m39
-6 c0 -5 -9 -10 -21 -10 -11 0 -17 5 -14 10 3 6 13 10 21 10 8 0 14 -4 14 -10z"/>
<path d="M345 8730 c-4 -7 2 -9 19 -4 16 4 26 2 26 -4 0 -6 -10 -12 -22 -14
-15 -2 -23 -10 -23 -23 0 -15 7 -20 31 -22 30 -1 30 0 25 35 -5 28 -12 38 -28
40 -11 2 -24 -2 -28 -8z m45 -40 c0 -12 -28 -25 -36 -17 -9 9 6 27 22 27 8 0
14 -5 14 -10z"/>
<path d="M471 8726 c-16 -19 -11 -46 11 -60 12 -7 21 -7 28 0 8 8 4 10 -11 10
-12 -1 -24 5 -26 12 -3 7 5 12 22 12 20 0 26 4 23 17 -4 23 -31 28 -47 9z m39
-6 c0 -5 -9 -10 -21 -10 -11 0 -17 5 -14 10 3 6 13 10 21 10 8 0 14 -4 14 -10z"/>
<path d="M665 8731 c-3 -7 0 -8 9 -5 8 3 21 2 28 -2 9 -6 5 -10 -12 -14 -26
-6 -36 -41 -12 -46 7 -1 8 0 2 3 -17 8 -11 33 9 33 11 0 18 -6 17 -16 0 -9 4
-19 10 -21 7 -2 9 9 5 34 -5 29 -11 39 -28 41 -11 2 -24 -2 -28 -7z"/>
<path d="M548 8533 c-2 -10 -1 -36 3 -58 l6 -40 2 35 c2 19 4 45 5 58 3 26
-10 30 -16 5z"/>
<path d="M832 8533 c-4 -10 -5 -36 -1 -58 l6 -40 2 38 c0 22 6 37 14 37 8 0 7
4 -3 10 -13 9 -13 11 0 20 9 6 11 10 3 10 -7 0 -16 -8 -21 -17z"/>
<path d="M903 8495 c0 -33 2 -45 4 -27 2 18 2 45 0 60 -2 15 -4 0 -4 -33z"/>
<path d="M122 8533 c12 -3 18 -18 21 -51 l3 -47 2 47 c2 40 5 47 25 51 12 2 2
4 -23 4 -25 1 -37 -1 -28 -4z"/>
<path d="M196 8480 c13 -32 14 -43 4 -55 -9 -10 -9 -15 -1 -15 6 0 11 1 11 3
0 1 9 26 20 55 11 28 17 52 14 52 -3 0 -10 -14 -16 -31 l-11 -31 -13 31 c-7
17 -15 31 -18 31 -3 0 1 -18 10 -40z"/>
<path d="M261 8461 c1 -32 4 -48 7 -36 4 11 16 20 27 20 16 0 20 7 20 35 0 31
-3 35 -27 36 -27 1 -28 0 -27 -55z m49 19 c0 -19 -5 -30 -14 -30 -17 0 -28 24
-20 45 11 27 34 17 34 -15z"/>
<path d="M351 8506 c-16 -19 -11 -46 11 -60 12 -7 21 -7 28 0 8 8 4 10 -11 10
-12 -1 -24 5 -26 12 -3 7 5 12 22 12 20 0 26 4 23 17 -4 23 -31 28 -47 9z m39
-6 c0 -5 -9 -10 -21 -10 -11 0 -17 5 -14 10 3 6 13 10 21 10 8 0 14 -4 14 -10z"/>
<path d="M472 8508 c-27 -27 0 -77 34 -64 10 4 14 16 12 38 -3 35 -25 47 -46
26z m38 -28 c0 -20 -5 -30 -15 -30 -18 0 -30 24 -21 45 10 28 36 17 36 -15z"/>
<path d="M621 8461 c1 -32 4 -48 7 -36 4 11 16 20 27 20 16 0 20 7 20 35 0 31
-3 35 -27 36 -27 1 -28 0 -27 -55z m49 19 c0 -20 -5 -30 -15 -30 -18 0 -30 24
-21 45 10 28 36 17 36 -15z"/>
<path d="M701 8476 c2 -34 3 -36 6 -11 3 17 9 35 14 41 5 7 3 11 -6 11 -11 0
-15 -11 -14 -41z"/>
<path d="M750 8501 c-13 -26 4 -64 27 -59 25 5 40 35 27 56 -16 25 -41 26 -54
3z m45 -21 c0 -16 -6 -26 -17 -28 -14 -3 -18 3 -18 28 0 25 4 31 18 28 11 -2
17 -12 17 -28z"/>
<path d="M873 8480 c0 -25 2 -35 4 -22 2 12 2 32 0 45 -2 12 -4 2 -4 -23z"/>
<path d="M941 8506 c-16 -19 -11 -46 11 -60 12 -7 21 -7 28 0 8 8 4 10 -11 10
-12 -1 -24 5 -26 12 -3 7 5 12 22 12 20 0 26 4 23 17 -4 23 -31 28 -47 9z m39
-6 c0 -5 -9 -10 -21 -10 -11 0 -17 5 -14 10 3 6 13 10 21 10 8 0 14 -4 14 -10z"/>
<path d="M493 8285 c0 -33 2 -45 4 -27 2 18 2 45 0 60 -2 15 -4 0 -4 -33z"/>
<path d="M1620 8322 c0 -13 -7 -18 -22 -18 -20 1 -23 -4 -23 -34 0 -31 3 -35
28 -36 26 -1 27 1 27 52 0 30 -2 54 -5 54 -3 0 -5 -8 -5 -18z m-5 -52 c0 -16
-6 -26 -17 -28 -14 -3 -18 3 -18 28 0 25 4 31 18 28 11 -2 17 -12 17 -28z"/>
<path d="M121 8316 c-13 -15 -1 -29 37 -41 34 -10 20 -30 -19 -28 -28 1 -30 0
-16 -9 24 -13 67 -2 67 18 0 9 -13 21 -30 27 -37 14 -41 41 -5 35 13 -3 22 -1
19 3 -8 14 -40 11 -53 -5z"/>
<path d="M879 8316 c-7 -7 2 -86 10 -86 3 0 6 18 5 40 -1 40 -6 55 -15 46z"/>
<path d="M216 8301 c-4 -5 3 -7 14 -4 11 3 20 0 20 -6 0 -6 -6 -11 -13 -11
-19 0 -36 -20 -30 -36 3 -8 13 -14 22 -13 10 0 11 2 4 6 -17 6 -16 33 1 33 7
0 16 -9 19 -20 3 -11 10 -20 15 -20 10 0 2 46 -13 70 -8 12 -32 13 -39 1z"/>
<path d="M293 8270 c0 -25 2 -35 4 -22 2 12 2 32 0 45 -2 12 -4 2 -4 -23z"/>
<path d="M318 8303 c6 -3 13 -21 13 -41 l2 -37 6 35 c4 22 12 35 21 35 9 0 17
-13 21 -35 6 -34 6 -34 8 -5 1 42 -9 52 -49 52 -19 1 -29 -1 -22 -4z"/>
<path d="M413 8255 c0 -33 2 -45 4 -27 2 18 2 45 0 60 -2 15 -4 0 -4 -33z"/>
<path d="M443 8300 c22 -14 22 -34 0 -56 -12 -12 -13 -16 -4 -13 8 3 19 13 25
22 12 19 -1 48 -25 54 -8 3 -7 0 4 -7z"/>
<path d="M523 8270 c0 -25 2 -35 4 -22 2 12 2 32 0 45 -2 12 -4 2 -4 -23z"/>
<path d="M551 8266 l2 -41 6 35 c8 48 38 54 44 8 l4 -33 -1 35 c-1 31 -4 35
-28 36 -26 1 -28 -1 -27 -40z"/>
<path d="M634 8296 c-12 -31 0 -61 24 -60 12 0 21 -4 19 -10 -2 -6 -14 -11
-26 -10 -13 0 -18 -3 -12 -9 5 -5 17 -7 27 -5 15 2 20 14 22 53 3 48 2 51 -23
53 -15 1 -28 -4 -31 -12z m41 -26 c0 -16 -6 -26 -17 -28 -14 -3 -18 3 -18 28
0 25 4 31 18 28 11 -2 17 -12 17 -28z"/>
<path d="M753 8270 c0 -25 2 -35 4 -22 2 12 2 32 0 45 -2 12 -4 2 -4 -23z"/>
<path d="M806 8301 c-4 -5 3 -7 14 -4 11 3 20 0 20 -6 0 -6 -6 -11 -13 -11
-19 0 -36 -20 -30 -36 3 -8 13 -14 22 -13 10 0 11 2 4 6 -17 6 -16 33 1 33 7
0 16 -9 19 -20 3 -11 10 -20 15 -20 10 0 2 46 -13 70 -8 12 -32 13 -39 1z"/>
<path d="M920 8295 c-24 -29 14 -85 41 -58 9 9 7 11 -8 7 -13 -4 -22 0 -26 10
-5 12 0 16 23 16 32 0 37 9 18 28 -16 16 -33 15 -48 -3z m45 -5 c4 -6 -5 -10
-20 -10 -15 0 -24 4 -20 10 3 6 12 10 20 10 8 0 17 -4 20 -10z"/>
<path d="M1043 8270 c0 -25 2 -35 4 -22 2 12 2 32 0 45 -2 12 -4 2 -4 -23z"/>
<path d="M1073 8270 c0 -25 2 -35 4 -22 2 12 2 32 0 45 -2 12 -4 2 -4 -23z"/>
<path d="M1102 8298 c9 -7 19 -26 21 -43 3 -21 4 -18 3 10 -1 31 -5 41 -21 43
-18 4 -19 3 -3 -10z"/>
<path d="M1197 8303 c-13 -13 -7 -31 13 -36 11 -3 20 -11 20 -17 0 -8 -9 -10
-27 -5 -21 5 -25 4 -17 -5 7 -7 20 -10 30 -8 27 5 30 35 5 43 -27 8 -27 29 -1
22 11 -3 18 -1 14 4 -6 11 -28 12 -37 2z"/>
<path d="M1260 8290 c-8 -14 -8 -26 0 -40 11 -21 44 -27 55 -10 4 7 -2 9 -19
4 -20 -5 -26 -2 -26 10 0 10 9 16 25 16 27 0 32 9 13 28 -18 18 -36 15 -48 -8z
m45 0 c3 -5 -3 -10 -14 -10 -12 0 -21 5 -21 10 0 6 6 10 14 10 8 0 18 -4 21
-10z"/>
<path d="M1340 8290 c-18 -34 24 -83 44 -51 4 5 -3 7 -14 4 -17 -5 -20 0 -20
27 0 27 3 32 20 27 11 -3 18 -1 14 4 -9 16 -33 10 -44 -11z"/>
<path d="M1414 8296 c-3 -8 -4 -25 -2 -38 2 -17 9 -23 28 -23 22 0 25 4 25 35
0 29 -4 36 -23 38 -13 2 -24 -3 -28 -12z m41 -26 c0 -27 -22 -39 -31 -16 -8
22 3 49 19 43 6 -2 12 -14 12 -27z"/>
<path d="M1491 8266 l2 -41 6 35 c8 48 38 54 44 8 l4 -33 -1 35 c-1 31 -4 35
-28 36 -26 1 -28 -1 -27 -40z"/>
<path d="M1657 8303 c-13 -13 -7 -31 13 -36 11 -3 20 -11 20 -17 0 -7 -8 -10
-20 -7 -11 3 -18 1 -14 -4 8 -14 30 -11 44 6 10 12 7 17 -14 26 -31 14 -35 34
-6 26 11 -3 18 -1 14 4 -6 11 -28 12 -37 2z"/>
<path d="M887 8163 c-4 -3 -7 -60 -7 -125 l0 -118 -389 0 c-215 0 -392 -3
-394 -7 -3 -5 955 -7 2129 -5 l2134 2 0 123 0 122 -305 -3 -304 -3 -4 -117 -3
-117 -2 120 -2 120 -215 -3 -214 -3 -4 -117 -3 -117 -2 120 -2 120 -335 -3
-334 -3 -4 -117 -3 -117 -2 120 -2 120 -455 -3 -454 -2 -4 -118 -3 -117 -2
120 -2 120 -400 -3 -399 -2 -4 -113 -3 -112 0 123 c1 67 1 122 0 122 0 0 -4
-3 -7 -7z m490 -145 c-2 -18 -4 -6 -4 27 0 33 2 48 4 33 2 -15 2 -42 0 -60z
m273 27 c0 -51 -2 -55 -24 -55 -13 0 -29 7 -36 15 -18 21 2 65 30 65 11 0 20
7 20 15 0 8 2 15 5 15 3 0 5 -25 5 -55z m895 20 c16 0 20 -7 22 -40 2 -42 -1
-39 -11 8 -9 37 -29 29 -37 -14 -5 -26 -6 -20 -7 26 0 33 3 51 6 40 4 -11 16
-20 27 -20z m510 0 c16 0 20 -7 22 -40 l1 -40 -6 35 c-4 22 -13 35 -22 35 -9
0 -17 -13 -21 -35 -5 -27 -6 -22 -7 25 0 33 3 51 6 40 4 -11 16 -20 27 -20z
m1082 -47 c-2 -18 -4 -6 -4 27 0 33 2 48 4 33 2 -15 2 -42 0 -60z m163 28 c0
-51 -1 -53 -27 -52 -25 1 -28 5 -28 36 0 30 3 35 23 34 15 0 22 5 22 18 0 10
2 18 5 18 3 0 5 -24 5 -54z m-3317 7 l22 -38 6 40 c6 39 6 39 8 -12 0 -29 -1
-53 -4 -53 -2 0 -16 17 -30 37 l-25 38 0 -38 c0 -20 -4 -37 -10 -37 -5 0 -10
23 -10 50 0 28 5 50 10 50 6 0 21 -17 33 -37z m842 27 c4 -7 -2 -9 -18 -5 -40
10 -41 -13 -2 -29 38 -16 43 -27 21 -46 -19 -15 -58 -9 -64 10 -5 13 -3 13 11
1 17 -14 47 -9 47 8 0 5 -13 14 -30 20 -28 9 -38 29 -23 44 10 11 51 8 58 -3z
m893 -83 c24 -4 24 -4 -5 -6 l-33 -1 2 53 2 52 3 -47 c4 -42 7 -47 31 -51z
m662 73 c0 -30 47 -28 53 3 2 12 4 -3 4 -33 0 -30 -2 -43 -4 -27 -3 21 -10 27
-29 27 -19 0 -24 -5 -24 -25 0 -14 -4 -25 -10 -25 -5 0 -10 23 -10 50 0 28 5
50 10 50 6 0 10 -9 10 -20z m484 4 c34 -34 8 -84 -45 -84 -28 0 -29 1 -29 50
0 49 1 50 29 50 16 0 37 -7 45 -16z m-1990 -44 c1 -23 -3 -39 -9 -37 -15 5
-24 76 -11 80 16 6 19 1 20 -43z m1368 9 c-3 -20 0 -34 9 -40 11 -7 10 -9 -3
-9 -14 0 -18 8 -18 36 0 49 -32 44 -41 -6 -6 -35 -6 -35 -8 8 0 24 2 41 7 39
4 -3 16 -1 27 3 28 10 32 5 27 -31z m749 -5 c-3 -38 8 -44 27 -14 7 11 19 20
27 20 8 0 15 5 15 11 0 6 -9 9 -20 6 -11 -3 -18 -1 -14 4 12 20 44 9 50 -18 3
-16 7 -33 9 -38 2 -7 -19 -11 -50 -12 l-53 -1 -4 40 c-4 39 0 53 11 42 3 -3 4
-21 2 -40z m-2893 24 c17 -17 15 -43 -4 -59 -31 -26 -70 25 -44 56 15 18 32
19 48 3z m55 5 c-7 -2 -13 -21 -13 -40 0 -44 -5 -40 -13 10 -5 33 -4 37 16 36
12 0 16 -3 10 -6z m74 -38 c1 -40 1 -40 -5 -6 -10 48 -28 49 -40 4 l-10 -38
-1 43 c-1 42 0 43 27 40 24 -3 27 -7 29 -43z m39 -1 c1 -37 1 -38 -3 -4 -3 19
-10 39 -16 43 -8 6 -7 7 3 4 10 -2 15 -17 16 -43z m85 4 c5 -35 5 -36 -25 -35
-40 2 -44 38 -6 47 15 4 20 9 13 13 -6 4 -19 4 -29 0 -12 -4 -15 -3 -10 6 4 7
18 11 29 9 16 -2 23 -12 28 -40z m56 -20 c-2 -13 -4 -3 -4 22 0 25 2 35 4 23
2 -13 2 -33 0 -45z m63 28 l-21 -35 23 -4 c17 -3 15 -5 -9 -6 -39 -1 -40 2
-12 37 l21 27 -24 6 c-20 6 -18 7 10 8 l34 1 -22 -34z m98 12 c3 -14 -3 -18
-23 -18 -17 0 -25 -5 -22 -12 2 -7 14 -12 26 -11 13 2 20 -1 16 -7 -11 -17
-44 -11 -55 10 -15 28 4 62 33 58 12 -2 23 -11 25 -20z m355 14 c-6 -4 -16
-23 -21 -42 l-10 -35 -1 43 c-1 37 2 42 22 42 13 0 17 -3 10 -8z m75 -14 c3
-14 -3 -18 -23 -18 -17 0 -25 -5 -22 -12 2 -7 15 -12 28 -10 17 2 21 0 12 -9
-29 -29 -65 14 -49 57 8 21 50 14 54 -8z m83 -19 c5 -35 5 -36 -28 -37 -30 -1
-34 1 -31 20 2 14 12 24 28 28 15 4 20 9 13 13 -6 4 -19 4 -29 0 -12 -4 -15
-3 -10 6 4 7 18 11 29 9 16 -2 23 -12 28 -39z m116 -4 c1 -40 1 -40 -5 -6 -10
48 -32 53 -32 7 0 -20 -4 -36 -10 -36 -5 0 -10 16 -10 36 0 46 -23 41 -31 -7
l-6 -34 -2 41 -1 41 48 -1 47 -1 2 -40z m81 -10 c-2 -39 -7 -51 -22 -53 -10
-2 -23 1 -29 7 -9 9 -5 11 12 9 13 -2 26 2 28 8 2 6 -7 10 -19 10 -17 -1 -24
5 -26 22 -5 37 5 52 33 50 25 -2 26 -5 23 -53z m49 42 c-9 -7 -18 -25 -20 -42
-3 -25 -4 -23 -6 10 -1 35 2 41 20 42 19 2 19 0 6 -10z m79 -14 c3 -16 7 -33
9 -39 2 -7 -11 -11 -33 -10 -43 1 -51 25 -14 41 27 12 29 29 2 22 -11 -3 -18
-1 -14 4 12 20 44 9 50 -18z m79 -13 c0 -28 -4 -35 -20 -35 -11 0 -23 -9 -27
-20 -3 -12 -6 4 -7 36 -1 55 0 56 27 55 24 -1 27 -5 27 -36z m282 -22 c-2 -13
-4 -3 -4 22 0 25 2 35 4 23 2 -13 2 -33 0 -45z m80 17 l1 -40 -6 35 c-4 22
-13 35 -22 35 -9 0 -17 -13 -21 -35 l-6 -35 -2 41 c-1 39 1 41 27 40 24 -1 27
-5 29 -41z m81 23 c3 -14 -3 -18 -23 -18 -17 0 -25 -5 -22 -12 2 -7 15 -12 28
-10 17 2 21 0 12 -9 -29 -29 -65 14 -49 57 8 21 50 14 54 -8z m72 13 c0 -5 -8
-8 -17 -7 -13 1 -18 -6 -18 -24 0 -18 5 -25 18 -24 9 1 17 -3 17 -8 0 -5 -10
-8 -22 -6 -23 3 -35 35 -24 64 6 15 46 20 46 5z m161 -32 c5 -35 5 -36 -28
-37 -30 -1 -34 1 -31 20 2 14 12 24 28 28 15 4 20 9 13 13 -6 4 -19 4 -29 0
-12 -4 -15 -3 -10 6 4 7 18 11 29 9 16 -2 23 -12 28 -39z m359 21 c10 -18 8
-20 -20 -20 -21 0 -30 -4 -27 -12 2 -7 14 -13 26 -12 13 0 18 -3 12 -9 -27
-27 -63 18 -47 59 8 21 44 17 56 -6z m81 -22 c5 -35 5 -36 -25 -35 -40 2 -44
38 -6 47 15 4 20 9 13 13 -6 4 -19 4 -29 0 -12 -4 -15 -3 -10 6 4 7 18 11 29
9 16 -2 23 -12 28 -40z m79 22 c14 -26 -3 -60 -30 -60 -10 0 -21 -8 -23 -17
-3 -10 -5 8 -6 40 -1 54 0 57 24 57 14 0 29 -8 35 -20z m278 -2 c3 -14 -3 -18
-23 -18 -17 0 -25 -5 -22 -12 2 -7 14 -12 26 -11 13 2 20 -1 16 -7 -11 -17
-44 -11 -55 10 -15 28 4 62 33 58 12 -2 23 -11 25 -20z m149 -40 c-2 -13 -4
-3 -4 22 0 25 2 35 4 23 2 -13 2 -33 0 -45z m111 40 c3 -14 -3 -18 -23 -18
-17 0 -25 -5 -22 -12 2 -7 15 -12 28 -10 17 2 21 0 12 -9 -29 -29 -65 14 -49
57 8 21 50 14 54 -8z"/>
<path d="M1600 8030 c0 -20 5 -30 15 -30 10 0 15 10 15 30 0 20 -5 30 -15 30
-10 0 -15 -10 -15 -30z"/>
<path d="M4254 8046 c-8 -22 3 -49 19 -43 6 2 12 14 12 27 0 27 -22 39 -31 16z"/>
<path d="M3810 8040 c0 -33 3 -40 20 -40 10 0 24 9 30 20 14 26 -3 60 -30 60
-17 0 -20 -7 -20 -40z"/>
<path d="M4030 8014 c0 -9 5 -14 12 -12 18 6 21 28 4 28 -9 0 -16 -7 -16 -16z"/>
<path d="M1056 8045 c-7 -20 3 -45 19 -45 7 0 15 7 19 15 7 20 -3 45 -19 45
-7 0 -15 -7 -19 -15z"/>
<path d="M1305 8019 c-4 -6 -4 -13 -1 -16 8 -8 36 5 36 17 0 13 -27 13 -35 -1z"/>
<path d="M1520 8050 c0 -5 9 -10 21 -10 11 0 17 5 14 10 -3 6 -13 10 -21 10
-8 0 -14 -4 -14 -10z"/>
<path d="M1955 8050 c-3 -5 3 -10 15 -10 12 0 18 5 15 10 -3 6 -10 10 -15 10
-5 0 -12 -4 -15 -10z"/>
<path d="M2030 8015 c0 -8 6 -15 14 -15 8 0 16 7 20 15 4 10 -1 15 -14 15 -11
0 -20 -7 -20 -15z"/>
<path d="M2234 8046 c-8 -22 3 -49 19 -43 6 2 12 14 12 27 0 27 -22 39 -31 16z"/>
<path d="M2360 8014 c0 -9 5 -14 12 -12 18 6 21 28 4 28 -9 0 -16 -7 -16 -16z"/>
<path d="M2444 8046 c-8 -22 3 -49 19 -43 6 2 12 14 12 27 0 27 -22 39 -31 16z"/>
<path d="M2885 8050 c-3 -5 3 -10 15 -10 12 0 18 5 15 10 -3 6 -10 10 -15 10
-5 0 -12 -4 -15 -10z"/>
<path d="M3110 8015 c0 -8 6 -15 14 -15 8 0 16 7 20 15 4 10 -1 15 -14 15 -11
0 -20 -7 -20 -15z"/>
<path d="M3475 8050 c-3 -5 3 -10 14 -10 12 0 21 5 21 10 0 6 -6 10 -14 10 -8
0 -18 -4 -21 -10z"/>
<path d="M3555 8019 c-4 -6 -4 -13 -1 -16 8 -8 36 5 36 17 0 13 -27 13 -35 -1z"/>
<path d="M3636 8045 c-8 -21 3 -45 20 -45 9 0 14 11 14 30 0 32 -23 42 -34 15z"/>
<path d="M3910 8050 c0 -5 9 -10 21 -10 11 0 17 5 14 10 -3 6 -13 10 -21 10
-8 0 -14 -4 -14 -10z"/>
<path d="M4175 8050 c-3 -5 3 -10 15 -10 12 0 18 5 15 10 -3 6 -10 10 -15 10
-5 0 -12 -4 -15 -10z"/>
<path d="M602 8045 c0 -58 0 -59 10 -22 12 46 35 49 41 5 4 -33 4 -33 3 2 -1
28 -5 36 -23 38 -12 2 -24 11 -26 20 -3 9 -5 -10 -5 -43z"/>
<path d="M169 8044 c-11 -26 -17 -49 -14 -52 2 -3 7 3 11 12 8 21 43 21 61 -1
10 -13 13 -14 9 -3 -2 8 -10 32 -17 53 -7 20 -16 37 -21 37 -5 0 -18 -21 -29
-46z m41 -6 c0 -5 -7 -8 -15 -8 -17 0 -18 2 -9 25 5 13 8 14 15 3 5 -7 9 -16
9 -20z"/>
<path d="M512 8078 c-15 -15 -16 -60 0 -76 17 -17 53 -15 68 3 15 18 7 19 -19
3 -23 -14 -51 3 -51 32 0 10 7 23 16 31 13 10 19 10 36 0 16 -10 19 -10 16 1
-6 17 -50 22 -66 6z"/>
<path d="M788 8072 c-26 -3 -28 -7 -27 -45 l1 -42 10 38 c12 46 36 49 40 5 2
-17 9 -33 16 -34 7 -1 8 0 2 3 -14 7 -13 60 2 65 19 7 -13 14 -44 10z"/>
<path d="M251 8028 l1 -43 10 35 c5 19 15 38 21 42 7 5 3 8 -10 8 -20 0 -23
-5 -22 -42z"/>
<path d="M304 8056 c-16 -43 20 -86 49 -57 9 9 5 11 -12 9 -13 -2 -26 3 -28
10 -3 7 5 12 22 12 20 0 26 4 23 18 -4 22 -46 29 -54 8z m41 -6 c3 -5 -3 -10
-15 -10 -12 0 -18 5 -15 10 3 6 10 10 15 10 5 0 12 -4 15 -10z"/>
<path d="M384 8059 c-5 -9 -2 -10 10 -6 10 4 23 4 29 0 7 -4 2 -9 -13 -13 -16
-4 -26 -14 -28 -28 -3 -19 1 -21 31 -20 33 1 33 2 28 37 -5 27 -12 37 -28 39
-11 2 -25 -2 -29 -9z m40 -44 c-4 -8 -12 -15 -20 -15 -8 0 -14 7 -14 15 0 8 9
15 20 15 13 0 18 -5 14 -15z"/>
<path d="M684 8059 c-5 -9 -2 -10 10 -6 10 4 23 4 29 0 7 -4 2 -9 -13 -13 -38
-9 -34 -45 6 -47 30 -1 30 0 25 35 -5 28 -12 38 -28 40 -11 2 -25 -2 -29 -9z
m46 -39 c0 -12 -28 -25 -36 -17 -9 9 6 27 22 27 8 0 14 -5 14 -10z"/>
<path d="M280 7846 c0 -2 9 -6 20 -9 11 -3 20 -1 20 4 0 5 -9 9 -20 9 -11 0
-20 -2 -20 -4z"/>
<path d="M342 7838 c-7 -7 -12 -19 -11 -27 0 -10 4 -7 9 7 14 33 33 28 28 -8
-3 -19 -1 -27 5 -21 11 11 5 53 -8 58 -6 2 -16 -2 -23 -9z"/>
<path d="M398 7844 c-5 -7 1 -23 12 -35 11 -13 19 -18 20 -11 0 6 -4 12 -9 12
-5 0 -11 10 -13 23 -2 14 -6 18 -10 11z"/>
<path d="M436 7835 c-3 -8 -1 -25 4 -37 8 -20 9 -18 9 15 1 39 -3 47 -13 22z"/>
<path d="M296 7793 c-6 -14 -5 -15 5 -6 7 7 10 15 7 18 -3 3 -9 -2 -12 -12z"/>
<path d="M9352 7788 c-7 -7 -12 -20 -12 -29 0 -43 72 -53 78 -11 6 42 -37 69
-66 40z"/>
<path d="M9480 7765 c0 -32 3 -36 23 -33 17 2 22 10 22 33 0 23 -5 31 -22 33
-20 3 -23 -1 -23 -33z m40 0 c0 -16 -6 -25 -15 -25 -9 0 -15 9 -15 25 0 16 6
25 15 25 9 0 15 -9 15 -25z"/>
<path d="M9662 7768 c-2 -27 2 -38 12 -38 8 0 18 4 21 10 3 5 0 7 -9 4 -11 -4
-16 3 -19 28 l-4 33 -1 -37z"/>
<path d="M9630 7761 c0 -11 -6 -22 -12 -24 -8 -3 -6 -6 5 -6 12 -1 17 7 17 24
0 14 -2 25 -5 25 -3 0 -5 -9 -5 -19z"/>
<path d="M9742 7757 c2 -13 11 -23 23 -24 16 -1 16 -1 3 3 -10 3 -18 9 -18 14
0 5 8 10 18 12 14 3 12 5 -6 10 -20 5 -23 3 -20 -15z"/>
<path d="M9580 7757 c0 -20 -11 -22 -29 -4 -10 10 -11 9 -6 -5 4 -10 14 -18
21 -18 16 0 30 27 20 37 -3 4 -6 -1 -6 -10z"/>
<path d="M1537 7542 c-26 -161 -56 -340 -187 -1107 -34 -198 -70 -412 -80
-475 -10 -63 -42 -250 -70 -415 -59 -348 -117 -691 -230 -1360 -114 -676 -161
-952 -225 -1330 -156 -919 -205 -1220 -201 -1230 2 -5 5 -4 5 3 1 7 15 43 33
80 17 37 49 110 71 162 21 52 61 149 89 215 58 140 95 230 173 415 55 130 82
195 158 380 19 47 61 146 92 220 31 74 72 171 90 215 31 75 86 207 177 425 22
52 60 146 85 207 25 62 49 111 53 108 3 -2 15 -30 25 -62 10 -32 37 -112 60
-178 66 -187 74 -212 120 -345 24 -69 71 -204 105 -300 34 -96 74 -213 90
-260 30 -91 69 -202 175 -505 36 -104 68 -197 70 -205 2 -8 34 -100 70 -205
37 -104 84 -241 105 -304 21 -62 42 -117 47 -122 5 -5 1251 -10 2819 -11
l2809 -3 -22 215 c-20 203 -62 543 -66 546 -3 1 -840 158 -907 169 -14 2 -124
23 -245 45 -121 23 -317 59 -435 81 -118 22 -321 60 -450 84 -129 24 -347 64
-485 90 -294 54 -615 114 -807 150 -75 14 -246 45 -380 70 -134 24 -342 63
-463 86 -121 22 -290 53 -375 69 -85 15 -240 44 -345 64 -104 20 -291 54 -415
77 -124 23 -228 45 -232 48 -9 8 -28 99 -248 1221 -50 256 -109 553 -130 660
-22 107 -75 377 -119 600 -44 223 -123 626 -176 895 -53 270 -116 590 -140
712 -25 122 -45 231 -45 242 0 11 -4 22 -8 25 -5 3 -20 -70 -35 -162z m966
-4919 c-7 -2 -19 -2 -25 0 -7 3 -2 5 12 5 14 0 19 -2 13 -5z m80 -10 c-7 -2
-19 -2 -25 0 -7 3 -2 5 12 5 14 0 19 -2 13 -5z m74 -9 c-3 -3 -12 -4 -19 -1
-8 3 -5 6 6 6 11 1 17 -2 13 -5z m566 -61 c-7 -2 -19 -2 -25 0 -7 3 -2 5 12 5
14 0 19 -2 13 -5z m80 -10 c-7 -2 -19 -2 -25 0 -7 3 -2 5 12 5 14 0 19 -2 13
-5z m84 -9 c-3 -3 -12 -4 -19 -1 -8 3 -5 6 6 6 11 1 17 -2 13 -5z m560 -60
c-3 -3 -12 -4 -19 -1 -8 3 -5 6 6 6 11 1 17 -2 13 -5z m86 -11 c-7 -2 -19 -2
-25 0 -7 3 -2 5 12 5 14 0 19 -2 13 -5z m74 -9 c-3 -3 -12 -4 -19 -1 -8 3 -5
6 6 6 11 1 17 -2 13 -5z m646 -71 c-7 -2 -19 -2 -25 0 -7 3 -2 5 12 5 14 0 19
-2 13 -5z m80 -10 c-7 -2 -19 -2 -25 0 -7 3 -2 5 12 5 14 0 19 -2 13 -5z m80
-10 c-7 -2 -19 -2 -25 0 -7 3 -2 5 12 5 14 0 19 -2 13 -5z m564 -59 c-3 -3
-12 -4 -19 -1 -8 3 -5 6 6 6 11 1 17 -2 13 -5z m76 -11 c-7 -2 -19 -2 -25 0
-7 3 -2 5 12 5 14 0 19 -2 13 -5z m84 -9 c-3 -3 -12 -4 -19 -1 -8 3 -5 6 6 6
11 1 17 -2 13 -5z m80 -10 c-3 -3 -12 -4 -19 -1 -8 3 -5 6 6 6 11 1 17 -2 13
-5z m560 -60 c-3 -3 -12 -4 -19 -1 -8 3 -5 6 6 6 11 1 17 -2 13 -5z m86 -11
c-7 -2 -19 -2 -25 0 -7 3 -2 5 12 5 14 0 19 -2 13 -5z m74 -9 c-3 -3 -12 -4
-19 -1 -8 3 -5 6 6 6 11 1 17 -2 13 -5z m646 -71 c-7 -2 -19 -2 -25 0 -7 3 -2
5 12 5 14 0 19 -2 13 -5z m80 -10 c-7 -2 -19 -2 -25 0 -7 3 -2 5 12 5 14 0 19
-2 13 -5z m84 -9 c-3 -3 -12 -4 -19 -1 -8 3 -5 6 6 6 11 1 17 -2 13 -5z m560
-60 c-3 -3 -12 -4 -19 -1 -8 3 -5 6 6 6 11 1 17 -2 13 -5z m80 -10 c-3 -3 -12
-4 -19 -1 -8 3 -5 6 6 6 11 1 17 -2 13 -5z m80 -10 c-3 -3 -12 -4 -19 -1 -8 3
-5 6 6 6 11 1 17 -2 13 -5z m50 -176 c-3 -8 -6 -5 -6 6 -1 11 2 17 5 13 3 -3
4 -12 1 -19z"/>
<path d="M9483 7645 c0 -27 2 -38 4 -22 2 15 2 37 0 50 -2 12 -4 0 -4 -28z"/>
<path d="M9350 7661 c-12 -23 -5 -47 16 -55 22 -8 54 11 54 32 0 41 -51 57
-70 23z"/>
<path d="M9511 7434 c0 -11 3 -14 6 -6 3 7 2 16 -1 19 -3 4 -6 -2 -5 -13z"/>
<path d="M9536 7419 c-3 -18 -4 -34 -2 -36 2 -3 7 10 11 27 4 17 5 34 2 36 -2
3 -7 -10 -11 -27z"/>
<path d="M9714 7436 c-8 -21 -1 -49 13 -54 21 -6 28 29 10 43 -9 7 -14 15 -10
18 3 4 3 7 -1 7 -3 0 -9 -6 -12 -14z m26 -31 c0 -8 -4 -15 -10 -15 -5 0 -10 7
-10 15 0 8 5 15 10 15 6 0 10 -7 10 -15z"/>
<path d="M9791 7433 c-1 -15 -8 -23 -18 -24 -14 0 -15 -2 -3 -6 8 -3 18 -10
21 -15 10 -16 16 15 8 42 -7 24 -7 24 -8 3z"/>
<path d="M9482 7430 c0 -8 3 -24 7 -34 7 -18 8 -18 14 -3 3 9 2 17 -3 17 -5 0
-11 8 -13 18 -3 11 -5 12 -5 2z"/>
<path d="M9561 7413 c-1 -27 16 -40 32 -24 9 9 8 11 -5 6 -12 -5 -18 0 -21 17
-4 22 -4 22 -6 1z"/>
<path d="M9654 7405 c1 -20 36 -36 36 -16 0 6 -6 8 -14 5 -9 -3 -16 2 -19 13
-3 15 -4 15 -3 -2z"/>
<path d="M287 7393 c-11 -10 -8 -51 4 -59 18 -11 35 14 20 29 -10 10 -11 9 -6
-5 4 -11 2 -18 -4 -18 -19 0 -13 48 7 53 14 4 14 5 1 6 -9 0 -19 -2 -22 -6z"/>
<path d="M348 7393 c7 -3 16 -2 19 1 4 3 -2 6 -13 5 -11 0 -14 -3 -6 -6z"/>
<path d="M396 7385 c4 -8 8 -15 10 -15 2 0 4 7 4 15 0 8 -4 15 -10 15 -5 0 -7
-7 -4 -15z"/>
<path d="M436 7392 c-3 -5 -1 -22 4 -38 8 -29 8 -29 9 9 1 36 -3 45 -13 29z"/>
<path d="M340 7370 c0 -5 7 -10 15 -10 20 0 19 -17 0 -23 -12 -4 -11 -5 1 -3
26 2 28 23 5 36 -14 7 -21 7 -21 0z"/>
<path d="M9487 7333 c-11 -10 -8 -33 4 -33 5 0 7 5 3 11 -3 6 0 15 7 20 8 5 9
9 3 9 -6 0 -14 -3 -17 -7z"/>
<path d="M9537 7332 c6 -4 13 -21 16 -37 l4 -30 2 32 c0 17 7 34 14 36 6 3 -1
6 -18 6 -16 0 -25 -3 -18 -7z"/>
<path d="M9598 7324 c-3 -11 -9 -26 -12 -34 -5 -11 0 -15 19 -15 20 0 24 4 19
20 -12 40 -21 49 -26 29z"/>
<path d="M9652 7328 c-14 -14 -16 -44 -3 -52 5 -4 7 4 4 15 -4 15 0 27 12 35
11 8 14 14 9 14 -6 0 -15 -5 -22 -12z"/>
<path d="M9725 7320 c-10 -11 -16 -21 -14 -23 2 -1 13 -9 23 -17 18 -14 18
-14 6 7 -11 18 -12 24 -1 37 19 23 7 20 -14 -4z"/>
<path d="M9351 7316 c-16 -20 -5 -53 20 -61 27 -9 51 13 47 44 -2 20 -9 27
-29 29 -14 2 -31 -4 -38 -12z"/>
<path d="M9511 7284 c0 -11 3 -14 6 -6 3 7 2 16 -1 19 -3 4 -6 -2 -5 -13z"/>
<path d="M9483 7185 c0 -22 2 -30 4 -17 2 12 2 30 0 40 -3 9 -5 -1 -4 -23z"/>
<path d="M9560 7186 c0 -14 4 -27 8 -30 5 -3 6 8 4 25 -5 35 -12 38 -12 5z"/>
<path d="M9650 7180 c0 -11 7 -23 16 -27 13 -5 13 -8 2 -15 -10 -8 -10 -9 2
-5 8 2 16 11 18 20 3 12 -1 15 -14 10 -14 -5 -16 -2 -12 15 4 12 2 22 -3 22
-5 0 -9 -9 -9 -20z"/>
<path d="M9735 7190 c3 -5 8 -10 11 -10 2 0 4 5 4 10 0 6 -5 10 -11 10 -5 0
-7 -4 -4 -10z"/>
<path d="M9603 7176 c1 -11 9 -21 17 -23 10 -3 11 -2 4 4 -6 4 -14 15 -17 23
-5 11 -6 9 -4 -4z"/>
<path d="M9714 7170 c1 -8 10 -16 21 -17 15 -1 15 0 3 3 -9 3 -19 11 -21 17
-2 7 -3 5 -3 -3z"/>
<path d="M9483 7067 c-10 -33 -10 -34 13 -23 17 8 19 12 9 14 -11 3 -13 8 -5
23 6 10 7 19 2 19 -5 0 -13 -15 -19 -33z"/>
<path d="M9541 7070 c0 -27 2 -31 9 -20 9 13 12 12 25 -5 14 -18 15 -17 9 15
-8 40 -14 52 -14 27 0 -22 -17 -22 -23 1 -3 9 -5 1 -6 -18z"/>
<path d="M9631 7088 c-1 -10 -9 -18 -18 -19 -14 0 -13 -2 5 -9 12 -5 22 -15
22 -21 0 -7 2 -10 4 -8 3 2 1 20 -4 39 -4 19 -8 27 -9 18z"/>
<path d="M9733 7073 l-7 -28 -7 25 c-6 20 -7 21 -8 5 0 -11 3 -27 8 -34 8 -12
11 -9 16 12 4 15 11 24 16 21 5 -3 9 -1 9 5 0 24 -20 19 -27 -6z"/>
<path d="M9796 7085 c-9 -26 -7 -32 5 -12 6 10 9 21 6 23 -2 3 -7 -2 -11 -11z"/>
<path d="M9900 7085 c0 -8 -8 -15 -17 -16 -14 0 -15 -2 -3 -6 8 -4 21 -13 28
-22 12 -14 12 -14 4 3 -5 10 -7 27 -5 37 3 11 3 19 -1 19 -3 0 -6 -7 -6 -15z"/>
<path d="M9932 7068 c4 -39 31 -49 48 -18 8 15 8 25 0 38 -11 16 -11 16 -6 0
7 -25 -3 -48 -21 -48 -11 0 -14 8 -11 30 3 17 1 30 -4 30 -5 0 -8 -15 -6 -32z"/>
<path d="M10000 7086 c0 -8 7 -16 15 -20 20 -7 19 -24 -2 -29 -17 -4 -17 -5 0
-6 27 -2 31 25 8 48 -15 15 -21 17 -21 7z"/>
<path d="M9767 7063 c-4 -3 -7 -13 -7 -22 1 -13 3 -13 11 2 11 19 8 33 -4 20z"/>
<path d="M9840 7051 c0 -8 -8 -11 -20 -8 -11 3 -18 1 -14 -4 3 -5 11 -9 19 -9
16 0 30 18 21 27 -3 4 -6 1 -6 -6z"/>
<path d="M9480 6956 c0 -20 2 -36 4 -36 8 0 12 61 4 66 -4 3 -8 -11 -8 -30z"/>
<path d="M9526 6982 c-3 -5 -1 -22 4 -38 8 -29 8 -29 9 9 1 36 -3 45 -13 29z"/>
<path d="M9560 6955 c0 -19 4 -35 8 -35 4 0 6 16 4 35 -2 19 -6 35 -8 35 -2 0
-4 -16 -4 -35z"/>
<path d="M9604 6975 c-3 -8 -4 -20 -1 -27 3 -7 6 -3 6 10 2 36 31 27 32 -10
l2 -33 4 30 c3 16 10 33 16 37 7 4 -3 8 -21 8 -20 0 -35 -6 -38 -15z"/>
<path d="M9731 6967 c-15 -39 -13 -47 4 -17 14 24 14 24 15 3 0 -12 5 -25 11
-29 8 -4 9 1 4 17 -15 50 -23 56 -34 26z"/>
<path d="M9787 6984 c-4 -4 -7 -21 -6 -38 0 -17 3 -25 6 -18 2 6 11 12 18 12
7 0 15 -6 18 -12 2 -7 4 3 3 22 -2 33 -22 51 -39 34z m25 -19 c0 -5 -5 -11
-11 -13 -6 -2 -11 4 -11 13 0 9 5 15 11 13 6 -2 11 -8 11 -13z"/>
<path d="M9850 6986 c0 -2 7 -6 15 -10 8 -3 15 -1 15 4 0 6 -7 10 -15 10 -8 0
-15 -2 -15 -4z"/>
<path d="M9950 6955 l0 -36 21 20 c23 21 20 51 -6 51 -11 0 -15 -10 -15 -35z
m30 10 c0 -8 -4 -15 -10 -15 -5 0 -10 7 -10 15 0 8 5 15 10 15 6 0 10 -7 10
-15z"/>
<path d="M10007 6982 c6 -4 13 -21 16 -37 l4 -30 2 32 c0 17 7 34 14 36 6 3
-1 6 -18 6 -16 0 -25 -3 -18 -7z"/>
<path d="M10060 6953 c0 -27 3 -34 9 -24 8 12 12 12 24 2 13 -10 15 -9 10 8
-3 12 -11 17 -19 14 -9 -3 -14 1 -14 12 0 11 5 15 15 11 8 -3 15 -1 15 4 0 6
-9 10 -20 10 -16 0 -20 -7 -20 -37z"/>
<path d="M10124 6978 c-4 -6 2 -17 12 -25 10 -8 18 -19 16 -24 -1 -6 2 -8 8
-4 16 10 12 23 -10 30 -25 8 -26 22 -2 28 15 4 15 5 0 6 -9 0 -20 -4 -24 -11z"/>
<path d="M10227 6983 c-4 -3 -6 -20 -6 -37 1 -17 3 -23 6 -14 2 9 12 19 21 21
15 4 15 5 0 6 -10 0 -18 5 -18 10 0 5 8 12 18 14 14 4 14 5 1 6 -9 0 -19 -2
-22 -6z"/>
<path d="M10280 6953 c0 -28 3 -34 10 -23 8 13 11 13 19 1 6 -9 8 -3 7 20 -1
23 -7 35 -19 37 -14 3 -17 -4 -17 -35z m30 18 c0 -6 -4 -13 -10 -16 -5 -3 -10
1 -10 9 0 9 5 16 10 16 6 0 10 -4 10 -9z"/>
<path d="M10347 6984 c-4 -4 -7 -18 -7 -31 0 -26 26 -41 42 -25 8 8 5 9 -11 5
-17 -4 -21 -1 -21 21 0 26 23 37 33 16 3 -6 4 -5 3 2 -3 15 -28 22 -39 12z"/>
<path d="M10423 6983 c21 -6 22 -17 2 -33 -17 -14 -20 -30 -4 -30 5 0 8 4 4 9
-3 5 -1 12 5 16 5 3 15 15 20 26 9 17 7 19 -17 18 -17 -1 -21 -3 -10 -6z"/>
<path d="M10470 6955 c0 -19 4 -35 10 -35 5 0 7 6 4 14 -3 8 2 16 13 19 16 4
16 5 1 6 -10 0 -18 5 -18 10 0 5 8 12 18 14 13 4 11 5 -5 6 -20 1 -23 -4 -23
-34z"/>
<path d="M10530 6956 c0 -20 2 -36 4 -36 8 0 12 61 4 66 -4 3 -8 -11 -8 -30z"/>
<path d="M10645 6979 c-4 -6 -4 -13 -1 -16 3 -4 6 -1 6 5 0 6 8 13 18 15 15 4
15 5 0 6 -9 0 -20 -4 -23 -10z"/>
<path d="M10750 6955 c0 -19 4 -35 10 -35 5 0 7 6 4 14 -3 8 2 16 13 19 16 4
16 5 1 6 -10 0 -18 5 -18 10 0 5 8 12 18 14 13 4 11 5 -5 6 -20 1 -23 -4 -23
-34z"/>
<path d="M10700 6950 c0 -16 4 -30 8 -30 5 0 7 14 4 30 -2 17 -6 30 -8 30 -2
0 -4 -13 -4 -30z"/>
<path d="M9850 6948 c0 -4 7 -8 15 -8 8 0 15 -5 15 -12 0 -6 2 -9 5 -6 10 9
-5 35 -20 35 -8 0 -15 -4 -15 -9z"/>
<path d="M284 6936 c-9 -23 0 -51 16 -51 8 0 15 8 16 18 1 12 1 13 -3 2 -2 -8
-9 -15 -14 -15 -14 0 -11 48 4 53 9 4 9 6 -1 6 -7 1 -15 -5 -18 -13z"/>
<path d="M336 6932 c-9 -27 3 -54 23 -50 22 5 22 62 -1 66 -9 2 -19 -5 -22
-16z m34 -17 c0 -26 -14 -33 -25 -15 -9 14 1 40 15 40 5 0 10 -11 10 -25z"/>
<path d="M396 6935 c4 -8 8 -15 10 -15 2 0 4 7 4 15 0 8 -4 15 -10 15 -5 0 -7
-7 -4 -15z"/>
<path d="M436 6942 c-3 -5 -1 -22 4 -38 8 -29 8 -29 9 9 1 36 -3 45 -13 29z"/>
<path d="M10556 6936 c3 -9 11 -16 16 -16 13 0 5 23 -10 28 -7 2 -10 -2 -6
-12z"/>
<path d="M10647 6929 c7 -7 15 -10 18 -7 3 3 -2 9 -12 12 -14 6 -15 5 -6 -5z"/>
<path d="M415 6910 c-3 -5 -1 -10 4 -10 6 0 11 5 11 10 0 6 -2 10 -4 10 -3 0
-8 -4 -11 -10z"/>
<path d="M9678 6893 c6 -2 18 -2 25 0 6 3 1 5 -13 5 -14 0 -19 -2 -12 -5z"/>
<path d="M9908 6893 c6 -2 18 -2 25 0 6 3 1 5 -13 5 -14 0 -19 -2 -12 -5z"/>
<path d="M10178 6893 c6 -2 18 -2 25 0 6 3 1 5 -13 5 -14 0 -19 -2 -12 -5z"/>
<path d="M10598 6893 c6 -2 18 -2 25 0 6 3 1 5 -13 5 -14 0 -19 -2 -12 -5z"/>
<path d="M9356 6854 c-29 -29 -12 -64 31 -64 31 0 44 47 18 67 -24 17 -30 16
-49 -3z"/>
<path d="M9480 6833 c0 -43 5 -41 13 5 4 18 2 32 -3 32 -6 0 -10 -16 -10 -37z"/>
<path d="M9521 6858 c1 -7 5 -24 9 -38 7 -22 8 -21 9 13 1 20 -3 37 -9 37 -5
0 -10 -6 -9 -12z"/>
<path d="M9563 6838 c1 -23 7 -33 20 -34 11 -1 12 0 3 3 -8 2 -17 17 -20 34
-6 28 -6 28 -3 -3z"/>
<path d="M9602 6845 c0 -16 2 -22 5 -12 2 9 2 23 0 30 -3 6 -5 -1 -5 -18z"/>
<path d="M9627 6862 c6 -4 13 -21 16 -37 l4 -30 2 32 c0 17 7 34 14 36 6 3 -1
6 -18 6 -16 0 -25 -3 -18 -7z"/>
<path d="M9737 6863 c-4 -6 -11 -23 -17 -38 -9 -25 -9 -26 5 -15 8 7 22 10 30
6 18 -7 19 1 1 33 -7 13 -16 19 -19 14z m13 -23 c0 -5 -5 -10 -11 -10 -5 0 -7
5 -4 10 3 6 8 10 11 10 2 0 4 -4 4 -10z"/>
<path d="M9781 6833 c1 -21 3 -30 6 -20 2 9 8 17 13 17 5 0 14 -8 20 -17 11
-17 11 -17 6 0 -3 10 -6 21 -6 23 0 2 -7 4 -15 4 -8 0 -15 5 -15 11 0 6 9 9
20 6 11 -3 18 -1 14 4 -3 5 -14 9 -25 9 -16 0 -19 -7 -18 -37z"/>
<path d="M9858 6863 c7 -3 16 -2 19 1 4 3 -2 6 -13 5 -11 0 -14 -3 -6 -6z"/>
<path d="M9951 6833 c1 -21 3 -30 6 -20 2 9 11 17 19 17 8 0 14 9 14 20 0 13
-7 20 -20 20 -17 0 -20 -6 -19 -37z m29 17 c0 -5 -4 -10 -10 -10 -5 0 -10 5
-10 10 0 6 5 10 10 10 6 0 10 -4 10 -10z"/>
<path d="M10007 6862 c6 -4 13 -21 16 -37 l4 -30 2 32 c0 17 7 34 14 36 6 3
-1 6 -18 6 -16 0 -25 -3 -18 -7z"/>
<path d="M10061 6833 c1 -21 3 -30 6 -20 2 9 8 17 13 17 5 0 14 -8 20 -17 11
-17 11 -17 6 0 -3 10 -6 27 -6 38 0 12 -7 19 -20 19 -17 0 -20 -6 -19 -37z
m29 17 c0 -5 -4 -10 -10 -10 -5 0 -10 5 -10 10 0 6 5 10 10 10 6 0 10 -4 10
-10z"/>
<path d="M10125 6860 c-3 -5 3 -15 15 -22 25 -16 25 -25 3 -31 -16 -4 -16 -5
-1 -6 28 -2 32 21 8 39 -22 17 -23 18 -4 23 15 4 16 5 2 6 -9 0 -20 -3 -23 -9z"/>
<path d="M10229 6854 c-16 -19 -1 -48 27 -51 15 -2 14 -1 -3 7 -13 5 -23 16
-23 25 0 9 10 20 23 25 15 6 17 9 6 9 -9 1 -22 -6 -30 -15z"/>
<path d="M10340 6835 c0 -30 3 -35 24 -35 14 0 28 5 32 11 3 6 15 9 25 6 22
-6 22 -6 9 28 -9 24 -30 27 -30 4 0 -6 5 -7 10 -4 6 3 10 1 10 -4 0 -6 -7 -11
-15 -11 -8 0 -15 -4 -15 -10 0 -5 -9 -10 -20 -10 -14 0 -20 7 -20 24 0 13 6
27 13 29 7 3 5 6 -5 6 -14 1 -18 -7 -18 -34z"/>
<path d="M10460 6849 c0 -11 4 -18 10 -14 5 3 7 12 3 20 -7 21 -13 19 -13 -6z"/>
<path d="M9500 6830 c0 -5 5 -10 11 -10 5 0 7 5 4 10 -3 6 -8 10 -11 10 -2 0
-4 -4 -4 -10z"/>
<path d="M9850 6829 c0 -5 4 -8 9 -4 6 3 15 -3 21 -12 11 -17 11 -17 6 0 -3
10 -6 21 -6 23 0 2 -7 4 -15 4 -8 0 -15 -5 -15 -11z"/>
<path d="M10486 6815 c4 -8 10 -15 15 -15 5 0 9 7 9 15 0 8 -7 15 -15 15 -9 0
-12 -6 -9 -15z"/>
<path d="M10298 6803 c6 -2 18 -2 25 0 6 3 1 5 -13 5 -14 0 -19 -2 -12 -5z"/>
<path d="M9678 6773 c6 -2 18 -2 25 0 6 3 1 5 -13 5 -14 0 -19 -2 -12 -5z"/>
<path d="M9908 6773 c7 -3 16 -2 19 1 4 3 -2 6 -13 5 -11 0 -14 -3 -6 -6z"/>
<path d="M10188 6773 c7 -3 16 -2 19 1 4 3 -2 6 -13 5 -11 0 -14 -3 -6 -6z"/>
<path d="M9481 6720 l1 -45 8 35 c5 20 5 39 -1 45 -5 5 -9 -8 -8 -35z"/>
<path d="M9521 6738 c0 -7 4 -22 9 -33 7 -17 9 -15 9 13 1 17 -3 32 -9 32 -5
0 -10 -6 -9 -12z"/>
<path d="M9561 6720 c6 -16 15 -30 19 -30 5 0 2 14 -6 30 -9 17 -17 30 -19 30
-2 0 1 -13 6 -30z"/>
<path d="M9620 6740 c0 -5 5 -10 10 -10 6 0 10 -5 10 -11 0 -6 -7 -9 -15 -5
-8 3 -15 2 -15 -3 0 -5 11 -11 25 -13 29 -6 28 -7 15 26 -9 25 -30 36 -30 16z"/>
<path d="M9693 6722 c-9 -6 -7 -11 6 -19 16 -10 18 -9 14 8 -3 10 -6 19 -7 19
0 0 -6 -4 -13 -8z"/>
<path d="M9500 6710 c0 -5 5 -10 11 -10 5 0 7 5 4 10 -3 6 -8 10 -11 10 -2 0
-4 -4 -4 -10z"/>
<path d="M9480 6606 c0 -20 2 -36 4 -36 8 0 12 61 4 66 -4 3 -8 -11 -8 -30z"/>
<path d="M9521 6628 c1 -7 5 -24 9 -38 7 -22 8 -21 9 13 1 20 -3 37 -9 37 -5
0 -10 -6 -9 -12z"/>
<path d="M9562 6608 c-2 -34 1 -38 21 -37 15 1 17 3 5 6 -10 2 -18 17 -21 36
-4 31 -4 31 -5 -5z"/>
<path d="M9601 6613 c2 -24 2 -25 6 -5 7 35 33 27 34 -10 l2 -33 4 30 c3 16
10 33 16 37 7 4 -5 8 -25 8 -35 0 -38 -2 -37 -27z"/>
<path d="M9722 6610 c14 -41 26 -46 38 -15 14 37 12 45 -5 15 l-13 -25 -11 28
c-14 37 -23 35 -9 -3z"/>
<path d="M9790 6637 c0 -7 31 -67 35 -67 7 0 -17 60 -26 66 -5 3 -9 3 -9 1z"/>
<path d="M9840 6603 c0 -25 3 -33 9 -24 5 7 13 11 18 8 5 -3 9 6 8 21 0 17 -6
28 -17 30 -15 3 -18 -4 -18 -35z m30 18 c0 -6 -4 -13 -10 -16 -5 -3 -10 1 -10
9 0 9 5 16 10 16 6 0 10 -4 10 -9z"/>
<path d="M9956 6631 c-4 -5 3 -7 14 -4 23 6 26 13 6 13 -8 0 -17 -4 -20 -9z"/>
<path d="M10011 6608 c-1 -30 3 -38 17 -38 11 0 13 3 5 8 -6 4 -13 21 -16 37
-4 27 -4 27 -6 -7z"/>
<path d="M10068 6633 c6 -2 18 -2 25 0 6 3 1 5 -13 5 -14 0 -19 -2 -12 -5z"/>
<path d="M10135 6620 c4 -14 12 -29 17 -35 7 -7 8 -2 3 15 -4 14 -12 30 -17
35 -7 7 -8 2 -3 -15z"/>
<path d="M10181 6605 c1 -40 1 -40 10 -10 5 18 5 33 -1 39 -7 7 -10 -4 -9 -29z"/>
<path d="M10060 6610 c0 -6 7 -10 15 -10 8 0 15 2 15 4 0 2 -7 6 -15 10 -8 3
-15 1 -15 -4z"/>
<path d="M9500 6600 c0 -5 5 -10 11 -10 5 0 7 5 4 10 -3 6 -8 10 -11 10 -2 0
-4 -4 -4 -10z"/>
<path d="M9777 6591 c-4 -17 -3 -21 5 -13 5 5 8 16 6 23 -3 8 -7 3 -11 -10z"/>
<path d="M10116 6583 c-6 -14 -5 -15 5 -6 7 7 10 15 7 18 -3 3 -9 -2 -12 -12z"/>
<path d="M10206 6585 c4 -8 8 -15 10 -15 2 0 4 7 4 15 0 8 -4 15 -10 15 -5 0
-7 -7 -4 -15z"/>
<path d="M9958 6578 c5 -5 16 -8 23 -6 8 3 3 7 -10 11 -17 4 -21 3 -13 -5z"/>
<path d="M10068 6573 c6 -2 18 -2 25 0 6 3 1 5 -13 5 -14 0 -19 -2 -12 -5z"/>
<path d="M9678 6543 c6 -2 18 -2 25 0 6 3 1 5 -13 5 -14 0 -19 -2 -12 -5z"/>
<path d="M9903 6543 c9 -2 23 -2 30 0 6 3 -1 5 -18 5 -16 0 -22 -2 -12 -5z"/>
<path d="M9483 6485 c0 -22 2 -30 4 -17 2 12 2 30 0 40 -3 9 -5 -1 -4 -23z"/>
<path d="M9513 6513 c9 -2 23 -2 30 0 6 3 -1 5 -18 5 -16 0 -22 -2 -12 -5z"/>
<path d="M280 6486 c0 -7 9 -16 20 -19 11 -3 20 -4 20 -3 0 1 -9 9 -20 19 -15
13 -20 14 -20 3z"/>
<path d="M400 6481 c12 -24 30 -36 30 -22 0 6 -4 11 -10 11 -5 0 -10 7 -10 15
0 8 -5 15 -10 15 -7 0 -7 -6 0 -19z"/>
<path d="M436 6491 c-4 -5 -2 -20 3 -33 9 -21 10 -21 10 10 1 32 -3 39 -13 23z"/>
<path d="M358 6462 c19 -21 27 -20 19 3 -4 8 -13 15 -22 15 -13 0 -12 -3 3
-18z"/>
<path d="M295 6440 c-16 -7 -17 -9 -3 -9 9 -1 20 4 23 9 7 11 7 11 -20 0z"/>
<path d="M9484 6396 c-3 -8 4 -24 15 -35 12 -12 21 -16 21 -10 0 7 -8 18 -17
25 -16 12 -16 15 -3 24 11 7 11 10 2 10 -7 0 -15 -6 -18 -14z"/>
<path d="M9537 6402 c6 -4 13 -21 16 -37 l4 -30 2 32 c0 17 7 34 14 36 6 3 -1
6 -18 6 -16 0 -25 -3 -18 -7z"/>
<path d="M9597 6404 c-4 -4 -7 -21 -7 -38 0 -23 3 -27 9 -17 8 12 13 12 24 3
12 -11 14 -8 8 20 -6 31 -21 45 -34 32z m23 -19 c0 -8 -4 -15 -10 -15 -5 0
-10 7 -10 15 0 8 5 15 10 15 6 0 10 -7 10 -15z"/>
<path d="M9351 6386 c-16 -19 -11 -46 12 -60 25 -16 52 4 52 40 0 24 -5 30
-26 32 -14 2 -31 -4 -38 -12z"/>
<path d="M9700 6371 c0 -17 2 -31 4 -31 8 0 13 51 5 56 -5 3 -9 -9 -9 -25z"/>
<path d="M9657 6383 c-4 -3 -7 -16 -7 -27 0 -12 3 -16 8 -10 4 6 14 14 22 17
11 4 10 6 -5 6 -17 1 -17 3 -5 11 8 5 10 10 4 10 -6 0 -14 -3 -17 -7z"/>
<path d="M9356 6274 c-9 -8 -16 -22 -16 -29 0 -15 27 -45 40 -45 13 0 40 30
40 45 0 15 -27 45 -40 45 -5 0 -16 -7 -24 -16z"/>
<path d="M9480 6253 c0 -43 5 -41 13 5 4 18 2 32 -3 32 -6 0 -10 -16 -10 -37z"/>
<path d="M9521 6278 c1 -7 5 -24 9 -38 7 -22 8 -21 9 13 1 20 -3 37 -9 37 -5
0 -10 -6 -9 -12z"/>
<path d="M9555 6275 c4 -11 10 -28 12 -37 3 -10 9 -18 14 -18 13 0 11 6 -12
42 -12 18 -18 24 -14 13z"/>
<path d="M9626 6263 c7 -4 14 -17 17 -28 5 -16 5 -15 4 4 -1 14 -9 26 -17 28
-10 3 -11 2 -4 -4z"/>
<path d="M9500 6250 c0 -5 5 -10 11 -10 5 0 7 5 4 10 -3 6 -8 10 -11 10 -2 0
-4 -4 -4 -10z"/>
<path d="M9537 6163 c-10 -9 -9 -23 1 -23 5 0 9 7 9 15 0 17 -1 18 -10 8z"/>
<path d="M9597 6163 c-12 -11 -7 -40 9 -53 12 -11 18 -11 31 2 16 16 10 58 -8
58 -5 0 -4 -9 3 -20 9 -15 10 -22 1 -31 -17 -17 -36 0 -30 27 5 26 4 28 -6 17z"/>
<path d="M9564 6133 c3 -6 -2 -16 -11 -22 -16 -9 -16 -10 -1 -11 23 0 33 19
18 33 -10 9 -11 9 -6 0z"/>
<path d="M280 6040 c0 -12 7 -20 16 -20 11 0 14 -5 9 -17 -5 -15 -4 -16 7 -5
11 11 10 16 -7 28 -17 13 -18 16 -5 24 13 8 12 10 -2 10 -11 0 -18 -8 -18 -20z"/>
<path d="M342 6048 c-7 -7 -12 -19 -11 -27 0 -10 4 -7 9 7 14 33 33 28 28 -8
-3 -19 -1 -27 5 -21 11 11 5 53 -8 58 -6 2 -16 -2 -23 -9z"/>
<path d="M398 6054 c-5 -7 1 -23 12 -35 11 -13 19 -18 20 -11 0 6 -4 12 -9 12
-5 0 -11 10 -13 23 -2 14 -6 18 -10 11z"/>
<path d="M436 6045 c-3 -8 -1 -25 4 -37 8 -20 9 -18 9 15 1 39 -3 47 -13 22z"/>
<path d="M9487 6054 c-10 -10 -9 -52 1 -58 5 -3 6 8 4 25 -3 21 0 29 11 29 8
0 18 -5 20 -10 3 -6 4 -5 3 2 -3 15 -28 22 -39 12z"/>
<path d="M9547 6052 c6 -4 13 -21 16 -37 l4 -30 2 32 c0 17 7 34 14 36 6 3 -1
6 -18 6 -16 0 -25 -3 -18 -7z"/>
<path d="M9677 6053 c-11 -10 -8 -63 3 -63 5 0 7 6 4 14 -3 8 2 16 13 19 16 4
16 5 1 6 -10 0 -18 5 -18 10 0 5 8 12 18 14 14 4 14 5 1 6 -9 0 -19 -2 -22 -6z"/>
<path d="M9730 6023 c0 -25 3 -33 9 -24 5 7 13 11 18 8 6 -4 10 6 9 21 -1 17
-7 28 -18 30 -15 3 -18 -4 -18 -35z m30 12 c0 -8 -4 -15 -10 -15 -5 0 -10 7
-10 15 0 8 5 15 10 15 6 0 10 -7 10 -15z"/>
<path d="M9650 6041 c0 -5 -10 -12 -22 -14 -23 -4 -23 -4 -1 -6 12 0 24 -9 26
-18 3 -10 5 -3 6 15 0 17 -1 32 -4 32 -3 0 -5 -4 -5 -9z"/>
<path d="M292 5589 c-19 -30 -11 -32 11 -3 10 13 14 24 10 24 -5 0 -14 -9 -21
-21z"/>
<path d="M348 5603 c7 -3 16 -2 19 1 4 3 -2 6 -13 5 -11 0 -14 -3 -6 -6z"/>
<path d="M396 5595 c4 -8 8 -15 10 -15 2 0 4 7 4 15 0 8 -4 15 -10 15 -5 0 -7
-7 -4 -15z"/>
<path d="M436 5602 c-3 -5 -1 -22 4 -38 8 -29 8 -29 9 9 1 36 -3 45 -13 29z"/>
<path d="M340 5580 c0 -5 7 -10 15 -10 20 0 19 -17 0 -23 -12 -4 -11 -5 1 -3
26 2 28 23 5 36 -14 7 -21 7 -21 0z"/>
<path d="M300 5560 c0 -5 5 -10 10 -10 6 0 10 5 10 10 0 6 -4 10 -10 10 -5 0
-10 -4 -10 -10z"/>
<path d="M300 5149 c0 -5 5 -7 10 -4 6 3 10 8 10 11 0 2 -4 4 -10 4 -5 0 -10
-5 -10 -11z"/>
<path d="M336 5142 c-9 -27 3 -54 23 -50 22 5 22 62 -1 66 -9 2 -19 -5 -22
-16z m34 -17 c0 -26 -14 -33 -25 -15 -9 14 1 40 15 40 5 0 10 -11 10 -25z"/>
<path d="M396 5145 c4 -8 8 -15 10 -15 2 0 4 7 4 15 0 8 -4 15 -10 15 -5 0 -7
-7 -4 -15z"/>
<path d="M436 5152 c-3 -5 -1 -22 4 -38 8 -29 8 -29 9 9 1 36 -3 45 -13 29z"/>
<path d="M280 5120 c0 -4 9 -10 20 -13 11 -3 20 -2 20 3 0 4 -9 10 -20 13 -11
3 -20 2 -20 -3z"/>
<path d="M415 5120 c-3 -5 -1 -10 4 -10 6 0 11 5 11 10 0 6 -2 10 -4 10 -3 0
-8 -4 -11 -10z"/>
<path d="M193 4943 c-7 -2 -13 -16 -13 -29 0 -19 5 -24 25 -24 31 0 33 17 3
23 l-23 4 23 8 c12 4 22 11 22 16 0 10 -17 11 -37 2z"/>
<path d="M190 4865 c-17 -20 -6 -45 20 -45 17 0 21 5 18 27 -4 31 -20 40 -38
18z m30 -15 c0 -5 -7 -10 -16 -10 -8 0 -12 5 -9 10 3 6 10 10 16 10 5 0 9 -4
9 -10z"/>
<path d="M203 4793 c9 -2 23 -2 30 0 6 3 -1 5 -18 5 -16 0 -22 -2 -12 -5z"/>
<path d="M186 4764 c-4 -9 -3 -21 1 -25 10 -9 53 7 53 20 0 6 -7 8 -16 4 -9
-3 -19 0 -24 6 -5 9 -9 8 -14 -5z"/>
<path d="M203 4723 c-7 -2 -13 -14 -13 -26 0 -16 3 -18 9 -9 7 11 9 10 15 -3
8 -23 26 -9 26 21 0 23 -11 28 -37 17z"/>
<path d="M400 4691 c12 -24 30 -36 30 -22 0 6 -4 11 -10 11 -5 0 -10 7 -10 15
0 8 -5 15 -10 15 -7 0 -7 -6 0 -19z"/>
<path d="M436 4701 c-4 -5 -2 -20 3 -33 9 -21 10 -21 10 10 1 32 -3 39 -13 23z"/>
<path d="M300 4690 c-10 -6 -11 -10 -2 -10 19 0 14 -28 -5 -34 -14 -4 -14 -4
2 -3 14 2 20 10 21 30 1 15 1 27 0 27 -1 0 -8 -5 -16 -10z"/>
<path d="M358 4672 c19 -21 27 -20 19 3 -4 8 -13 15 -22 15 -13 0 -12 -3 3
-18z"/>
<path d="M192 4645 c2 -12 12 -21 26 -23 17 -3 22 2 22 19 0 22 -1 22 -14 4
-13 -18 -13 -18 -25 1 -11 18 -12 18 -9 -1z"/>
<path d="M194 4585 c-8 -20 4 -35 27 -35 14 0 19 7 19 25 0 18 -5 25 -20 25
-11 0 -23 -7 -26 -15z m33 -21 c-9 -9 -28 6 -21 18 4 6 10 6 17 -1 6 -6 8 -13
4 -17z"/>
<path d="M188 4523 c12 -2 30 -2 40 0 9 3 -1 5 -23 4 -22 0 -30 -2 -17 -4z"/>
<path d="M170 4490 c0 -5 16 -10 35 -10 19 0 35 5 35 10 0 6 -16 10 -35 10
-19 0 -35 -4 -35 -10z"/>
<path d="M198 4458 c-32 -11 -37 -33 -10 -41 9 -2 24 -8 33 -11 12 -5 15 1 15
29 0 19 -2 35 -5 34 -4 0 -18 -5 -33 -11z"/>
<path d="M300 4261 c13 -10 13 -12 0 -21 -12 -7 -12 -10 -1 -10 8 0 11 -6 7
-16 -3 -8 -2 -12 3 -9 15 9 7 58 -9 62 -13 4 -13 3 0 -6z"/>
<path d="M342 4258 c-7 -7 -12 -19 -11 -27 0 -10 4 -7 9 7 14 33 33 28 28 -8
-3 -19 -1 -27 5 -21 11 11 5 53 -8 58 -6 2 -16 -2 -23 -9z"/>
<path d="M398 4264 c-5 -7 1 -23 12 -35 11 -13 19 -18 20 -11 0 6 -4 12 -9 12
-5 0 -11 10 -13 23 -2 14 -6 18 -10 11z"/>
<path d="M436 4255 c-3 -8 -1 -25 4 -37 8 -20 9 -18 9 15 1 39 -3 47 -13 22z"/>
<path d="M290 3813 c8 -3 19 -11 23 -17 6 -7 7 -6 4 4 -2 8 -12 16 -23 17 -13
2 -15 1 -4 -4z"/>
<path d="M348 3813 c7 -3 16 -2 19 1 4 3 -2 6 -13 5 -11 0 -14 -3 -6 -6z"/>
<path d="M396 3805 c4 -8 8 -15 10 -15 2 0 4 7 4 15 0 8 -4 15 -10 15 -5 0 -7
-7 -4 -15z"/>
<path d="M436 3812 c-3 -5 -1 -22 4 -38 8 -29 8 -29 9 9 1 36 -3 45 -13 29z"/>
<path d="M340 3790 c0 -5 7 -10 15 -10 20 0 19 -17 0 -23 -12 -4 -11 -5 1 -3
26 2 28 23 5 36 -14 7 -21 7 -21 0z"/>
<path d="M285 3760 c-4 -6 3 -10 14 -10 25 0 27 6 6 13 -8 4 -17 2 -20 -3z"/>
<path d="M293 3363 c12 -3 16 -10 12 -21 -5 -13 -3 -14 6 -5 14 14 3 33 -19
32 -15 -1 -14 -2 1 -6z"/>
<path d="M336 3352 c-9 -27 3 -54 23 -50 22 5 22 62 -1 66 -9 2 -19 -5 -22
-16z m34 -17 c0 -26 -14 -33 -25 -15 -9 14 1 40 15 40 5 0 10 -11 10 -25z"/>
<path d="M396 3355 c4 -8 8 -15 10 -15 2 0 4 7 4 15 0 8 -4 15 -10 15 -5 0 -7
-7 -4 -15z"/>
<path d="M436 3362 c-3 -5 -1 -22 4 -38 8 -29 8 -29 9 9 1 36 -3 45 -13 29z"/>
<path d="M415 3330 c-3 -5 -1 -10 4 -10 6 0 11 5 11 10 0 6 -2 10 -4 10 -3 0
-8 -4 -11 -10z"/>
<path d="M285 3310 c-4 -6 3 -10 14 -10 25 0 27 6 6 13 -8 4 -17 2 -20 -3z"/>
<path d="M295 2885 c0 -19 5 -35 10 -35 7 0 9 15 7 35 -2 19 -7 35 -11 35 -3
0 -6 -16 -6 -35z"/>
<path d="M400 2901 c12 -24 30 -36 30 -22 0 6 -4 11 -10 11 -5 0 -10 7 -10 15
0 8 -5 15 -10 15 -7 0 -7 -6 0 -19z"/>
<path d="M436 2911 c-4 -5 -2 -20 3 -33 9 -21 10 -21 10 10 1 32 -3 39 -13 23z"/>
<path d="M354 2888 c19 -11 19 -11 1 -24 -21 -15 -9 -19 14 -5 18 12 7 41 -16
41 -17 -1 -16 -2 1 -12z"/>
<path d="M295 2445 c0 -19 3 -35 8 -35 4 0 7 16 7 35 0 19 -3 35 -7 35 -5 0
-8 -16 -8 -35z"/>
<path d="M342 2468 c-7 -7 -12 -19 -11 -27 0 -10 4 -7 9 7 14 33 33 28 28 -8
-3 -19 -1 -27 5 -21 11 11 5 53 -8 58 -6 2 -16 -2 -23 -9z"/>
<path d="M398 2474 c-5 -7 1 -23 12 -35 11 -13 19 -18 20 -11 0 6 -4 12 -9 12
-5 0 -11 10 -13 23 -2 14 -6 18 -10 11z"/>
<path d="M436 2465 c-3 -8 -1 -25 4 -37 8 -20 9 -18 9 15 1 39 -3 47 -13 22z"/>
<path d="M348 2023 c7 -3 16 -2 19 1 4 3 -2 6 -13 5 -11 0 -14 -3 -6 -6z"/>
<path d="M396 2015 c4 -8 8 -15 10 -15 2 0 4 7 4 15 0 8 -4 15 -10 15 -5 0 -7
-7 -4 -15z"/>
<path d="M436 2022 c-3 -5 -1 -22 4 -38 8 -29 8 -29 9 9 1 36 -3 45 -13 29z"/>
<path d="M340 2000 c0 -5 7 -10 15 -10 20 0 19 -17 0 -23 -12 -4 -11 -5 1 -3
26 2 28 23 5 36 -14 7 -21 7 -21 0z"/>
<path d="M336 1562 c-9 -27 3 -54 23 -50 22 5 22 62 -1 66 -9 2 -19 -5 -22
-16z m34 -17 c0 -26 -14 -33 -25 -15 -9 14 1 40 15 40 5 0 10 -11 10 -25z"/>
<path d="M396 1565 c4 -8 8 -15 10 -15 2 0 4 7 4 15 0 8 -4 15 -10 15 -5 0 -7
-7 -4 -15z"/>
<path d="M436 1572 c-3 -5 -1 -22 4 -38 8 -29 8 -29 9 9 1 36 -3 45 -13 29z"/>
<path d="M415 1540 c-3 -5 -1 -10 4 -10 6 0 11 5 11 10 0 6 -2 10 -4 10 -3 0
-8 -4 -11 -10z"/>
<path d="M1275 1044 c-159 -135 -315 -266 -345 -292 -30 -27 -123 -105 -207
-175 -154 -129 -183 -158 -147 -142 10 4 46 16 79 25 33 10 146 48 250 84 105
37 298 103 429 147 l239 81 46 -21 c25 -11 69 -29 96 -40 28 -10 106 -43 175
-71 69 -29 172 -72 230 -95 58 -24 150 -61 206 -84 l100 -41 2817 -2 2816 -3
-16 25 c-8 14 -27 37 -40 51 l-24 26 -277 7 c-299 7 -953 25 -2077 56 -823 22
-922 25 -1745 46 -338 9 -802 21 -1030 27 l-416 12 -104 74 c-58 41 -145 105
-195 141 -126 93 -565 410 -568 410 -1 0 -132 -111 -292 -246z m1583 -491
c-21 -2 -55 -2 -75 0 -21 2 -4 4 37 4 41 0 58 -2 38 -4z m3320 -50 c-10 -2
-26 -2 -35 0 -10 3 -2 5 17 5 19 0 27 -2 18 -5z m119 0 c-20 -2 -52 -2 -70 0
-17 2 0 4 38 4 39 0 53 -2 32 -4z m555 -10 c-40 -2 -103 -2 -140 0 -37 2 -4 3
73 3 77 0 107 -2 67 -3z m526 -10 c-27 -2 -69 -2 -95 0 -27 2 -5 3 47 3 52 0
74 -1 48 -3z m100 0 c-10 -2 -26 -2 -35 0 -10 3 -2 5 17 5 19 0 27 -2 18 -5z
m415 -10 c-13 -2 -33 -2 -45 0 -13 2 -3 4 22 4 25 0 35 -2 23 -4z m75 0 c-10
-2 -26 -2 -35 0 -10 3 -2 5 17 5 19 0 27 -2 18 -5z"/>
<path d="M534 316 c-7 -30 1 -46 24 -45 15 1 15 2 0 6 -21 5 -24 33 -6 51 9 9
9 12 0 12 -6 0 -14 -11 -18 -24z"/>
<path d="M627 333 c-13 -13 -7 -63 7 -63 8 0 18 4 21 10 3 6 -1 7 -9 4 -12 -5
-16 1 -16 21 0 20 4 26 16 21 8 -3 12 -2 9 4 -7 12 -19 13 -28 3z"/>
<path d="M717 333 c-13 -13 -7 -63 7 -63 8 0 18 4 21 10 3 6 -1 7 -9 4 -12 -5
-16 1 -16 21 0 20 4 26 16 21 8 -3 12 -2 9 4 -7 12 -19 13 -28 3z"/>
<path d="M805 305 c0 -19 5 -35 10 -35 7 0 9 15 7 35 -2 19 -7 35 -11 35 -3 0
-6 -16 -6 -35z"/>
<path d="M954 314 c-4 -14 -2 -30 4 -36 17 -17 42 -1 41 24 l-2 23 -4 -22 c-2
-13 -11 -23 -19 -23 -20 0 -18 37 4 49 16 10 16 10 0 11 -11 0 -20 -10 -24
-26z"/>
<path d="M1053 333 c21 -6 22 -21 0 -45 -15 -17 -15 -18 2 -18 10 0 15 3 12 7
-4 3 -2 12 4 19 15 18 4 44 -18 43 -17 -1 -17 -2 0 -6z"/>
<path d="M1204 326 c-9 -24 0 -51 19 -54 9 -2 17 1 17 7 0 6 -7 8 -15 5 -11
-5 -15 1 -15 21 0 20 4 26 16 21 8 -3 12 -2 9 4 -9 15 -25 12 -31 -4z"/>
<path d="M1303 334 c20 -6 22 -20 5 -27 -10 -4 -10 -6 0 -6 6 -1 12 -5 12 -10
0 -5 -6 -11 -12 -14 -8 -2 -7 -3 2 -3 10 1 15 12 15 31 0 22 -5 30 -20 32 -16
1 -16 1 -2 -3z"/>
<path d="M1455 331 c-3 -7 0 -8 9 -5 12 5 16 0 16 -19 0 -16 -7 -28 -17 -31
-14 -4 -14 -4 2 -3 15 2 20 10 20 31 0 30 -18 46 -30 27z"/>
<path d="M1549 323 c-8 -10 -9 -14 -2 -10 7 5 13 -2 16 -20 3 -23 4 -21 6 10
1 42 -1 44 -20 20z"/>
<path d="M1713 329 c9 -5 17 -16 17 -24 0 -8 -8 -19 -17 -24 -16 -9 -16 -10
-2 -11 9 0 20 7 23 16 9 25 -3 54 -22 54 -16 -1 -15 -2 1 -11z"/>
<path d="M1780 325 c0 -7 8 -19 18 -24 15 -9 15 -12 2 -21 -13 -8 -13 -10 3
-10 21 0 23 28 2 36 -20 8 -19 21 3 27 13 4 11 5 -5 6 -14 1 -23 -5 -23 -14z"/>
<path d="M1962 326 c7 -8 15 -12 17 -11 5 6 -10 25 -20 25 -5 0 -4 -6 3 -14z"/>
<path d="M2037 333 c-11 -10 -8 -51 4 -59 6 -3 16 -1 22 6 9 9 7 15 -8 26 -17
13 -18 16 -5 24 8 5 10 10 4 10 -6 0 -14 -3 -17 -7z m23 -43 c0 -5 -4 -10 -10
-10 -5 0 -10 5 -10 10 0 6 5 10 10 10 6 0 10 -4 10 -10z"/>
<path d="M2194 326 c-9 -23 0 -51 16 -51 10 0 15 10 15 29 0 32 -21 47 -31 22z
m26 -21 c0 -14 -4 -25 -10 -25 -5 0 -10 11 -10 25 0 14 5 25 10 25 6 0 10 -11
10 -25z"/>
<path d="M2286 333 c5 -5 12 -12 16 -18 4 -6 8 -2 8 8 0 9 -7 17 -17 17 -9 0
-12 -3 -7 -7z"/>
<path d="M2445 330 c-3 -6 1 -7 9 -4 18 7 21 14 7 14 -6 0 -13 -4 -16 -10z"/>
<path d="M2528 333 c-3 -4 -5 -20 -6 -35 -1 -22 3 -28 18 -28 16 0 19 6 17 32
-2 30 -20 49 -29 31z m22 -13 c0 -5 -4 -10 -10 -10 -5 0 -10 5 -10 10 0 6 5
10 10 10 6 0 10 -4 10 -10z m0 -30 c0 -5 -4 -10 -10 -10 -5 0 -10 5 -10 10 0
6 5 10 10 10 6 0 10 -4 10 -10z"/>
<path d="M2684 326 c-8 -22 -1 -49 14 -52 7 -1 8 0 2 3 -5 2 -10 16 -10 30 0
19 4 24 16 19 8 -3 12 -2 9 4 -9 15 -25 12 -31 -4z"/>
<path d="M2767 326 c-6 -16 11 -36 30 -36 7 0 13 8 13 18 0 13 -2 14 -9 3 -5
-8 -14 -10 -21 -6 -10 6 -9 11 5 22 16 11 16 13 3 13 -9 0 -18 -6 -21 -14z"/>
<path d="M3014 326 c-9 -23 0 -51 16 -52 9 0 10 1 3 3 -15 5 -17 53 -3 53 6 0
15 -10 20 -22 5 -14 9 -17 9 -7 1 16 -17 39 -31 39 -5 0 -11 -6 -14 -14z"/>
<path d="M3188 305 c2 -19 7 -35 11 -35 4 0 5 16 3 35 -2 19 -7 35 -11 35 -4
0 -5 -16 -3 -35z"/>
<path d="M3269 331 c8 -5 12 -19 9 -35 -3 -14 -1 -26 3 -26 5 0 9 16 9 35 0
27 -4 35 -17 35 -14 0 -15 -2 -4 -9z"/>
<path d="M3435 305 c0 -19 5 -35 10 -35 7 0 9 15 7 35 -2 19 -7 35 -11 35 -3
0 -6 -16 -6 -35z"/>
<path d="M3510 336 c0 -2 7 -6 15 -10 8 -3 15 -1 15 4 0 6 -7 10 -15 10 -8 0
-15 -2 -15 -4z"/>
<path d="M3678 305 c2 -19 7 -35 11 -35 4 0 5 16 3 35 -2 19 -7 35 -11 35 -4
0 -5 -16 -3 -35z"/>
<path d="M3766 333 c6 -4 11 -17 11 -28 0 -11 -5 -23 -11 -27 -7 -5 -4 -8 7
-8 15 0 18 7 15 32 -2 17 -10 33 -18 35 -10 3 -11 2 -4 -4z"/>
<path d="M3925 305 c0 -19 5 -35 10 -35 7 0 9 15 7 35 -2 19 -7 35 -11 35 -3
0 -6 -16 -6 -35z"/>
<path d="M4020 304 c0 -19 4 -33 8 -30 8 5 4 66 -4 66 -2 0 -4 -16 -4 -36z"/>
<path d="M4175 304 c0 -19 3 -34 8 -34 4 0 7 13 7 29 0 17 -3 32 -7 34 -5 3
-8 -10 -8 -29z"/>
<path d="M4250 321 c0 -10 7 -21 15 -25 18 -7 20 10 3 17 -10 4 -9 8 2 16 13
9 13 11 -2 11 -11 0 -18 -8 -18 -19z"/>
<path d="M4494 316 c-7 -30 1 -46 24 -45 15 1 15 2 0 6 -10 2 -18 9 -18 15 0
5 8 7 18 4 15 -5 15 -5 -1 8 -18 14 -18 15 0 25 16 10 17 10 1 11 -10 0 -20
-10 -24 -24z"/>
<path d="M4665 305 c0 -19 5 -35 10 -35 7 0 9 15 7 35 -2 19 -7 35 -11 35 -3
0 -6 -16 -6 -35z"/>
<path d="M4752 333 c14 -3 15 -9 8 -29 -6 -14 -10 -28 -10 -32 1 -10 17 20 24
46 6 19 4 22 -16 21 -16 -1 -18 -3 -6 -6z"/>
<path d="M4909 332 c8 -6 12 -20 9 -36 -3 -14 -1 -26 4 -26 15 0 4 63 -12 67
-12 4 -13 3 -1 -5z"/>
<path d="M4987 333 c-3 -5 -4 -19 -3 -33 1 -17 7 -25 20 -25 27 0 33 25 7 32
-12 3 -21 10 -21 15 0 6 9 8 20 5 11 -3 18 -1 14 4 -6 11 -31 12 -37 2z m33
-43 c0 -5 -7 -10 -15 -10 -8 0 -15 5 -15 10 0 6 7 10 15 10 8 0 15 -4 15 -10z"/>
<path d="M5158 305 c2 -19 7 -35 11 -35 4 0 5 16 3 35 -2 19 -7 35 -11 35 -4
0 -5 -16 -3 -35z"/>
<path d="M5235 331 c-3 -7 0 -8 9 -5 12 5 16 0 16 -19 0 -14 -5 -28 -10 -30
-6 -3 -5 -4 2 -3 16 3 17 58 1 63 -6 2 -14 -1 -18 -6z"/>
<path d="M5403 333 c21 -6 22 -21 0 -45 -15 -17 -15 -18 8 -17 13 0 18 3 11 6
-10 4 -10 8 -1 19 15 18 4 44 -18 43 -17 -1 -17 -2 0 -6z"/>
<path d="M5485 331 c-3 -7 0 -8 9 -5 12 5 16 -1 16 -21 0 -22 -3 -26 -17 -20
-15 5 -16 4 -5 -6 16 -18 35 1 30 32 -3 25 -22 36 -33 20z"/>
<path d="M5648 333 c7 -3 16 -2 19 1 4 3 -2 6 -13 5 -11 0 -14 -3 -6 -6z"/>
<path d="M5735 305 c0 -19 5 -35 10 -35 7 0 9 15 7 35 -2 19 -7 35 -11 35 -3
0 -6 -16 -6 -35z"/>
<path d="M5900 330 c12 -8 13 -13 3 -30 -17 -26 -16 -30 5 -29 11 0 12 2 4 6
-10 4 -10 8 -1 19 13 16 5 44 -13 44 -9 0 -8 -3 2 -10z"/>
<path d="M5980 333 c8 -3 19 -11 23 -17 6 -7 7 -6 4 4 -2 8 -12 16 -23 17 -13
2 -15 1 -4 -4z"/>
<path d="M6140 333 c8 -3 19 -11 23 -17 6 -7 7 -6 4 4 -2 8 -12 16 -23 17 -13
2 -15 1 -4 -4z"/>
<path d="M6220 336 c0 -2 9 -6 20 -9 11 -3 18 -1 14 4 -5 9 -34 13 -34 5z"/>
<path d="M6390 333 c8 -3 19 -11 23 -17 6 -7 7 -6 4 4 -2 8 -12 16 -23 17 -13
2 -15 1 -4 -4z"/>
<path d="M6483 328 c-18 -24 -25 -43 -7 -23 16 20 16 20 11 -2 -3 -13 -1 -26
4 -29 5 -3 9 11 9 30 0 39 -3 42 -17 24z"/>
<path d="M6644 327 c16 -12 16 -14 2 -26 -21 -18 -20 -31 2 -31 13 0 14 2 4 9
-10 6 -10 10 2 20 18 15 10 41 -12 41 -13 0 -13 -2 2 -13z"/>
<path d="M6710 320 c0 -11 7 -20 15 -20 18 0 20 -16 3 -23 -10 -4 -10 -6 -1
-6 20 -2 27 21 10 34 -22 16 -21 22 1 28 13 4 11 5 -5 6 -17 1 -23 -5 -23 -19z"/>
<path d="M6883 333 c21 -6 22 -21 0 -45 -15 -17 -15 -18 2 -18 10 0 15 3 12 7
-4 3 -2 12 4 19 15 18 4 44 -18 43 -17 -1 -17 -2 0 -6z"/>
<path d="M6965 330 c-3 -6 1 -7 9 -4 18 7 21 14 7 14 -6 0 -13 -4 -16 -10z"/>
<path d="M7133 333 c13 -3 16 -11 12 -26 -5 -19 -5 -20 5 -4 13 21 5 37 -18
36 -15 -1 -15 -2 1 -6z"/>
<path d="M7213 333 c20 -5 20 -4 6 -40 -6 -17 -6 -24 0 -18 5 6 13 22 16 38 6
24 4 27 -16 26 -17 -1 -19 -3 -6 -6z"/>
<path d="M7380 330 c12 -8 13 -13 3 -30 -17 -26 -16 -30 5 -29 11 0 12 2 4 6
-10 4 -10 8 -1 19 13 16 5 44 -13 44 -9 0 -8 -3 2 -10z"/>
<path d="M7454 329 c-4 -7 0 -17 9 -24 21 -15 22 -29 1 -21 -8 3 -12 2 -9 -4
14 -23 35 -10 32 22 -3 33 -20 48 -33 27z m26 -9 c0 -5 -4 -10 -10 -10 -5 0
-10 5 -10 10 0 6 5 10 10 10 6 0 10 -4 10 -10z"/>
<path d="M7620 333 c8 -3 19 -11 23 -17 6 -7 7 -6 4 4 -2 8 -12 16 -23 17 -13
2 -15 1 -4 -4z"/>
<path d="M7700 330 c0 -5 3 -9 8 -7 4 1 7 -2 7 -8 0 -5 -4 -9 -8 -7 -5 1 -6
-2 -2 -8 8 -12 35 -13 35 -1 0 21 -13 41 -26 41 -8 0 -14 -4 -14 -10z"/>
<path d="M7868 333 c7 -3 16 -2 19 1 4 3 -2 6 -13 5 -11 0 -14 -3 -6 -6z"/>
<path d="M7950 336 c0 -2 7 -7 16 -10 8 -3 12 -2 9 4 -6 10 -25 14 -25 6z"/>
<path d="M8199 331 c8 -5 12 -19 9 -35 -3 -14 -1 -26 3 -26 5 0 9 16 9 35 0
27 -4 35 -17 35 -14 0 -15 -2 -4 -9z"/>
<path d="M8363 334 c20 -6 22 -20 5 -27 -10 -4 -10 -6 0 -6 6 -1 12 -5 12 -10
0 -5 -6 -11 -12 -14 -8 -2 -7 -3 2 -3 10 1 15 12 15 31 0 22 -5 30 -20 32 -16
1 -16 1 -2 -3z"/>
<path d="M8440 336 c0 -2 7 -6 15 -10 8 -3 15 -1 15 4 0 6 -7 10 -15 10 -8 0
-15 -2 -15 -4z"/>
<path d="M8613 334 c20 -6 22 -20 5 -27 -10 -4 -10 -6 0 -6 6 -1 12 -5 12 -10
0 -5 -6 -11 -12 -14 -8 -2 -7 -3 2 -3 10 1 15 12 15 31 0 22 -5 30 -20 32 -16
1 -16 1 -2 -3z"/>
<path d="M8693 334 c20 -6 23 -24 5 -24 -9 0 -8 -4 2 -10 13 -9 13 -11 0 -20
-13 -8 -12 -10 3 -10 28 0 20 64 -8 67 -16 1 -16 1 -2 -3z"/>
<path d="M8856 333 c6 -4 11 -17 11 -28 0 -11 -5 -23 -11 -27 -7 -5 -4 -8 7
-8 15 0 18 7 15 32 -2 17 -10 33 -18 35 -10 3 -11 2 -4 -4z"/>
<path d="M8949 335 c-3 -5 -3 -23 0 -40 4 -16 9 -25 12 -20 3 6 3 24 0 40 -4
17 -9 26 -12 20z"/>
<path d="M9033 334 c20 -6 22 -20 5 -27 -10 -4 -10 -6 0 -6 6 -1 12 -5 12 -10
0 -5 -6 -11 -12 -14 -8 -2 -7 -3 2 -3 10 1 15 12 15 31 0 22 -5 30 -20 32 -16
1 -16 1 -2 -3z"/>
<path d="M9118 333 c7 -3 16 -2 19 1 4 3 -2 6 -13 5 -11 0 -14 -3 -6 -6z"/>
<path d="M1691 304 c0 -11 3 -14 6 -6 3 7 2 16 -1 19 -3 4 -6 -2 -5 -13z"/>
<path d="M7941 303 c-1 -27 16 -40 32 -24 9 9 8 11 -5 6 -12 -5 -18 0 -21 17
-4 22 -4 22 -6 1z"/>
<path d="M8125 310 c-3 -5 -1 -10 4 -10 6 0 11 5 11 10 0 6 -2 10 -4 10 -3 0
-8 -4 -11 -10z"/>
<path d="M2430 303 c0 -15 18 -35 27 -32 5 2 1 12 -9 22 -10 9 -18 14 -18 10z"/>
<path d="M3522 298 c-17 -17 -15 -28 6 -27 11 0 12 2 4 6 -10 4 -10 8 -1 19
14 17 8 19 -9 2z"/>
<path d="M6957 290 c3 -12 12 -20 22 -18 24 5 19 33 -6 36 -17 3 -20 -1 -16
-18z m33 0 c0 -5 -4 -10 -10 -10 -5 0 -10 5 -10 10 0 6 5 10 10 10 6 0 10 -4
10 -10z"/>
<path d="M8452 298 c-17 -17 -15 -28 6 -27 11 0 12 2 4 6 -10 4 -10 8 -1 19
14 17 8 19 -9 2z"/>
<path d="M9126 295 c19 -14 19 -14 0 -15 -11 0 -17 -3 -13 -6 3 -4 13 -4 21
-1 20 8 10 37 -12 37 -13 0 -12 -3 4 -15z"/>
<path d="M5980 285 c-10 -12 -10 -15 2 -15 8 0 15 7 15 15 0 8 -1 15 -2 15 -2
0 -8 -7 -15 -15z"/>
<path d="M6140 285 c-10 -12 -10 -15 2 -15 8 0 15 7 15 15 0 8 -1 15 -2 15 -2
0 -8 -7 -15 -15z"/>
<path d="M6390 285 c-10 -12 -10 -15 2 -15 8 0 15 7 15 15 0 8 -1 15 -2 15 -2
0 -8 -7 -15 -15z"/>
<path d="M7620 285 c-10 -12 -10 -15 2 -15 8 0 15 7 15 15 0 8 -1 15 -2 15 -2
0 -8 -7 -15 -15z"/>
<path d="M1960 280 c-13 -8 -12 -10 3 -10 9 0 17 5 17 10 0 12 -1 12 -20 0z"/>
<path d="M6235 280 c-16 -7 -17 -9 -3 -9 9 -1 20 4 23 9 7 11 7 11 -20 0z"/>
<path d="M7875 280 c-16 -7 -17 -9 -3 -9 9 -1 20 4 23 9 7 11 7 11 -20 0z"/>
<path d="M2778 273 c7 -3 16 -2 19 1 4 3 -2 6 -13 5 -11 0 -14 -3 -6 -6z"/>
<path d="M2938 273 c7 -3 16 -2 19 1 4 3 -2 6 -13 5 -11 0 -14 -3 -6 -6z"/>
<path d="M4258 273 c7 -3 16 -2 19 1 4 3 -2 6 -13 5 -11 0 -14 -3 -6 -6z"/>
<path d="M4418 273 c7 -3 16 -2 19 1 4 3 -2 6 -13 5 -11 0 -14 -3 -6 -6z"/>
<path d="M5648 273 c7 -3 16 -2 19 1 4 3 -2 6 -13 5 -11 0 -14 -3 -6 -6z"/>
<path d="M7128 273 c7 -3 16 -2 19 1 4 3 -2 6 -13 5 -11 0 -14 -3 -6 -6z"/>
<path d="M7708 273 c7 -3 16 -2 19 1 4 3 -2 6 -13 5 -11 0 -14 -3 -6 -6z"/>
<path d="M8118 273 c7 -3 16 -2 19 1 4 3 -2 6 -13 5 -11 0 -14 -3 -6 -6z"/>
<path d="M4628 193 c6 -2 12 -18 12 -34 0 -18 4 -28 10 -24 6 3 10 17 10 30 0
13 6 26 13 28 6 3 -4 5 -23 5 -19 0 -29 -2 -22 -5z"/>
<path d="M4690 167 c0 -23 4 -36 10 -32 13 8 13 35 0 55 -7 11 -10 5 -10 -23z"/>
<path d="M4937 193 c-10 -9 -8 -61 2 -67 5 -3 8 12 7 34 0 22 -1 40 -2 40 0 0
-4 -3 -7 -7z"/>
<path d="M5035 160 c0 -43 9 -53 18 -20 6 22 -2 60 -12 60 -3 0 -6 -18 -6 -40z"/>
<path d="M4720 159 c0 -16 5 -29 10 -29 6 0 10 9 10 20 0 28 20 25 21 -2 0
-22 1 -22 11 2 11 25 11 25 15 3 6 -33 25 -28 21 4 -3 25 -7 28 -45 29 -41 1
-43 0 -43 -27z"/>
<path d="M4832 178 c-17 -17 -15 -35 4 -42 23 -9 34 -7 34 5 0 5 -4 8 -9 4 -5
-3 -12 -1 -16 5 -3 6 3 10 16 10 18 0 19 2 9 15 -15 18 -22 19 -38 3z"/>
<path d="M4974 179 c-4 -7 1 -16 12 -22 17 -10 17 -11 -1 -18 -19 -7 -19 -8 2
-8 30 -1 39 17 17 35 -11 9 -13 13 -6 9 6 -3 12 -1 12 4 0 15 -27 14 -36 0z"/>
</g>
</svg>
